<svg width="238" height="40" viewBox="0 0 238 40" fill="none" xmlns="http://www.w3.org/2000/svg">
<path d="M9.32066 8.50244C9.44105 8.50266 9.56144 8.50287 9.68548 8.50309C9.75171 8.50308 9.81794 8.50306 9.88617 8.50305C10.1061 8.50312 10.3259 8.50387 10.5458 8.50463C10.6979 8.50481 10.85 8.50494 11.002 8.50504C11.403 8.50541 11.804 8.50636 12.2051 8.50743C12.6139 8.50842 13.0228 8.50886 13.4317 8.50935C14.2346 8.51039 15.0374 8.51204 15.8403 8.51407C15.8667 8.58647 15.8932 8.65888 15.9204 8.73348C17.4014 12.7874 18.8857 16.84 20.3752 20.8905C20.7196 21.8271 21.0638 22.7638 21.4078 23.7005C21.4895 23.9228 21.5711 24.1451 21.6528 24.3673C22.0936 25.5672 22.0936 25.5672 22.2903 26.103C22.7707 27.4115 23.2512 28.72 23.7361 30.0267C23.7686 30.1143 23.8011 30.2019 23.8345 30.2921C23.9775 30.6777 24.1207 31.0632 24.2646 31.4484C24.3119 31.5759 24.3592 31.7033 24.4065 31.8307C24.4462 31.9371 24.4859 32.0435 24.5268 32.1531C24.609 32.3976 24.609 32.3976 24.609 32.591C22.431 32.591 20.2529 32.591 18.0089 32.591C17.7143 31.8013 17.7143 31.8013 17.4137 30.9956C17.3523 30.831 17.2909 30.6664 17.2276 30.4968C17.178 30.3639 17.1285 30.231 17.0789 30.0981C17.0539 30.0311 17.0289 29.9641 17.0031 29.895C16.9658 29.795 16.9658 29.795 16.9278 29.693C16.9067 29.6363 16.8855 29.5796 16.8637 29.5212C16.7417 29.1911 16.6212 28.8604 16.5003 28.5299C13.7622 28.5299 11.0241 28.5299 8.20301 28.5299C7.45625 30.4444 7.45625 30.4444 6.69441 32.3976C6.6633 32.4615 6.63218 32.5253 6.60012 32.591C4.42208 32.591 2.24404 32.591 0 32.591C0.649059 30.7051 0.649059 30.7051 0.946558 29.927C0.98036 29.8379 1.01416 29.7489 1.04899 29.6571C1.12123 29.4668 1.19359 29.2765 1.26604 29.0862C1.46469 28.5646 1.66245 28.0426 1.86034 27.5206C1.9219 27.3583 1.9219 27.3583 1.98471 27.1928C2.42406 26.034 2.85938 24.8738 3.29417 23.7133C3.373 23.5029 3.45184 23.2925 3.53067 23.0822C3.68904 22.6595 3.84737 22.2369 4.0057 21.8143C4.35963 20.8695 4.71399 19.9249 5.06831 18.9803C5.26341 18.4601 5.45849 17.94 5.65357 17.4198C5.73198 17.2107 5.8104 17.0016 5.88882 16.7925C5.92808 16.6878 5.96733 16.5832 6.00778 16.4753C6.45752 15.2762 6.90726 14.077 7.357 12.8778C7.39341 12.7807 7.42982 12.6836 7.46733 12.5836C7.53921 12.3919 7.61113 12.2003 7.68308 12.0087C7.88146 11.4802 8.07905 10.9515 8.27584 10.4224C8.34077 10.2482 8.34077 10.2482 8.40702 10.0705C8.49114 9.84481 8.57506 9.61905 8.65876 9.39321C8.71527 9.24178 8.71527 9.24178 8.77292 9.0873C8.823 8.95257 8.823 8.95257 8.87408 8.81512C8.99571 8.51648 8.99571 8.51648 9.32066 8.50244ZM12.3517 16.0562C12.3006 16.2098 12.3006 16.2098 12.2484 16.3665C12.1163 16.7636 11.9841 17.1607 11.852 17.5578C11.7624 17.8269 11.6728 18.0961 11.5833 18.3652C11.2875 19.2542 10.991 20.1429 10.6921 21.0307C10.6394 21.1873 10.5868 21.3439 10.5341 21.5005C10.4591 21.7237 10.384 21.947 10.3085 22.1701C10.2392 22.375 10.1702 22.5801 10.1013 22.7852C10.0623 22.9008 10.0233 23.0163 9.9831 23.1353C9.89073 23.3886 9.89073 23.3886 9.90018 23.5984C11.5182 23.5984 13.1361 23.5984 14.8031 23.5984C14.6833 23.0454 14.5673 22.5471 14.3941 22.0169C14.3729 21.9517 14.3517 21.8865 14.3299 21.8193C14.2609 21.6073 14.1913 21.3955 14.1218 21.1837C14.0734 21.0354 14.025 20.887 13.9767 20.7387C13.8503 20.3508 13.7234 19.9632 13.5963 19.5756C13.4664 19.179 13.337 18.7822 13.2076 18.3854C12.9542 17.6089 12.7002 16.8325 12.4459 16.0562C12.4148 16.0562 12.3837 16.0562 12.3517 16.0562Z" fill="black"/>
<path d="M129.08 9.23248C129.24 9.39342 129.185 9.59401 129.186 9.80867C129.185 9.87751 129.185 9.94635 129.185 10.0173C129.185 10.0895 129.185 10.1616 129.185 10.236C129.185 10.4757 129.184 10.7154 129.183 10.9551C129.183 11.1208 129.183 11.2865 129.183 11.4523C129.182 11.8894 129.181 12.3265 129.18 12.7636C129.179 13.2093 129.179 13.6549 129.178 14.1006C129.177 14.9758 129.176 15.8509 129.174 16.726C129.065 16.6157 129.065 16.6157 128.953 16.5033C127.48 15.0267 125.754 14.2349 123.647 14.2362C122.197 14.2592 120.831 14.7068 119.745 15.6826C119.681 15.7369 119.618 15.7912 119.552 15.8471C118.323 16.9707 117.744 18.6843 117.65 20.3138C117.594 22.1176 118.098 23.7881 119.315 25.1384C119.435 25.247 119.435 25.247 119.557 25.3577C119.605 25.408 119.654 25.4583 119.704 25.51C120.101 25.8992 120.52 26.1488 121.018 26.3834C121.076 26.4109 121.134 26.4384 121.194 26.4667C122.767 27.1753 124.559 27.1121 126.175 26.5879C127.186 26.1945 128.372 25.5248 128.985 24.5989C129.048 24.5989 129.11 24.5989 129.174 24.5989C129.174 27.0405 129.174 29.482 129.174 31.9976C124.936 33.241 121.296 33.5292 117.357 31.4014C116.463 30.9015 115.683 30.328 114.936 29.6262C114.882 29.5758 114.827 29.5254 114.771 29.4735C112.634 27.4865 111.278 24.7089 111.153 21.7562C111.068 18.1083 111.929 14.8085 114.456 12.0962C115.289 11.2229 116.177 10.5277 117.199 9.89647C117.255 9.86183 117.311 9.8272 117.369 9.79151C118.777 8.93981 120.388 8.43124 122.008 8.18909C122.096 8.17564 122.183 8.16219 122.273 8.14833C124.574 7.87878 126.948 8.37109 129.08 9.23248Z" fill="#00B0F0"/>
<path d="M101.998 14.4587C102.239 14.6921 102.458 14.9542 102.679 15.2124C102.71 14.6673 102.741 14.1221 102.773 13.5605C104.671 13.5605 106.569 13.5605 108.525 13.5605C108.525 19.7386 108.525 25.9168 108.525 32.2822C106.627 32.2822 104.729 32.2822 102.773 32.2822C102.742 31.7007 102.711 31.1192 102.679 30.5201C102.576 30.6678 102.473 30.8154 102.366 30.9675C101.388 32.2374 99.9691 32.8571 98.5219 32.9564C96.152 33.0566 94.1985 32.3605 92.4431 30.4577C90.6926 28.4197 89.8363 25.8414 89.8203 22.9764C89.8353 20.2921 90.5646 17.8825 92.1186 15.8731C92.1914 15.7778 92.2642 15.6824 92.3392 15.5841C94.7445 12.5971 99.1319 12.0282 101.998 14.4587ZM96.5501 20.2782C95.8495 21.3919 95.6739 22.551 95.7958 23.9125C96.0281 25.0846 96.5604 25.9715 97.3987 26.6656C98.3363 27.25 99.5134 27.281 100.54 27.0296C101.454 26.6762 102.143 26.0263 102.596 25.0344C103.063 23.8818 103.096 22.6625 102.777 21.4462C102.418 20.4005 101.751 19.5645 100.887 19.0668C99.3201 18.4347 97.6524 18.812 96.5501 20.2782Z" fill="black"/>
<path d="M148.031 15.5908C148.19 15.7516 148.347 15.9143 148.503 16.0791C148.569 16.1463 148.635 16.2136 148.704 16.2829C150.059 17.7405 150.763 19.8721 150.876 21.9883C150.965 24.5652 150.642 27.0641 149.139 29.0707C148.992 29.2538 148.842 29.4349 148.691 29.614C148.62 29.698 148.55 29.782 148.477 29.8685C147.135 31.3664 145.391 32.2255 143.6 32.6952C143.507 32.7201 143.413 32.7451 143.318 32.7708C140.417 33.4172 137.308 32.6808 134.869 30.7563C133.178 29.3657 132.034 27.4948 131.654 25.0998C131.644 25.028 131.635 24.9563 131.625 24.8823C131.615 24.8105 131.604 24.7388 131.594 24.6648C131.281 22.0665 131.67 19.3017 133.039 17.1795C134.622 14.8339 137.094 13.4331 139.606 13.0539C142.619 12.6779 145.628 13.3469 148.031 15.5908ZM138.406 20.1906C137.649 21.3851 137.542 22.5505 137.66 24.002C137.824 25.0677 138.368 25.8302 139.082 26.496C139.97 27.1951 141.058 27.1941 142.091 27.0831C142.968 26.8719 143.68 26.357 144.195 25.5013C144.814 24.3342 144.967 23.1299 144.719 21.7943C144.451 20.6628 143.82 19.7362 142.944 19.146C141.446 18.358 139.492 18.7497 138.406 20.1906Z" fill="#00B0F0"/>
<path d="M71.847 15.8565C71.9249 15.9269 72.0028 15.9972 72.0831 16.0696C73.4255 17.3686 74.1461 19.3972 74.3928 21.3672C74.4155 21.8813 74.4146 22.3954 74.4164 22.9101C74.4193 23.1149 74.4193 23.1149 74.4223 23.3239C74.4294 25.3304 73.9784 27.2887 72.8842 28.8616C72.8245 28.9506 72.7648 29.0395 72.7034 29.1311C71.1537 31.2994 68.6585 32.5769 66.2881 32.9085C63.1996 33.2002 60.1311 32.4966 57.6973 30.1385C56.2281 28.6227 55.4379 26.8178 55.1581 24.5633C55.0177 21.7127 55.2211 19.0965 56.8553 16.8484C56.9253 16.7393 56.9953 16.6302 57.0675 16.5178C58.5311 14.5145 61.2243 13.2296 63.4279 13.0075C66.4982 12.7735 69.4715 13.4534 71.847 15.8565ZM61.9468 20.265C61.239 21.3757 61.1098 22.4307 61.1925 23.7918C61.341 24.8406 61.8095 25.7423 62.5192 26.4059C63.5463 27.2031 64.7654 27.264 65.9541 27.0345C66.7883 26.7552 67.42 26.1876 67.8792 25.3262C68.3739 24.211 68.5271 23.0357 68.2939 21.796C67.9449 20.5972 67.3975 19.7305 66.4388 19.1349C64.8751 18.3401 63.0653 18.7786 61.9468 20.265Z" fill="black"/>
<path d="M168.044 14.2411C169.385 15.5303 170.035 17.4736 170.216 19.4747C170.308 20.8116 170.295 22.1482 170.292 23.4885C170.292 23.7519 170.292 24.0152 170.292 24.2786C170.292 24.9669 170.291 25.6551 170.29 26.3434C170.289 27.1718 170.288 28.0002 170.288 28.8287C170.287 30.0828 170.285 31.3369 170.283 32.591C168.354 32.591 166.425 32.591 164.437 32.591C164.434 31.7649 164.43 30.9388 164.427 30.0877C164.424 29.5631 164.421 29.0385 164.418 28.5139C164.413 27.6819 164.408 26.85 164.405 26.018C164.402 25.347 164.399 24.676 164.394 24.005C164.392 23.7495 164.391 23.494 164.391 23.2385C164.39 22.8795 164.387 22.5206 164.384 22.1616C164.384 22.0569 164.384 21.9523 164.384 21.8444C164.372 20.8467 164.205 19.9195 163.655 19.1381C163.132 18.5442 162.474 18.5738 161.792 18.5809C161.031 18.6101 160.476 18.7855 159.912 19.4031C159.741 19.7249 159.741 19.7249 159.611 20.0876C159.565 20.2055 159.519 20.3233 159.472 20.4447C159.208 21.3089 159.129 22.1611 159.127 23.0751C159.126 23.2307 159.126 23.2307 159.124 23.3894C159.122 23.7281 159.12 24.0667 159.118 24.4053C159.117 24.6418 159.115 24.8782 159.113 25.1146C159.108 25.7338 159.104 26.353 159.101 26.9722C159.096 27.7168 159.09 28.4614 159.085 29.206C159.077 30.3343 159.07 31.4626 159.063 32.591C157.165 32.591 155.267 32.591 153.312 32.591C153.312 26.3211 153.312 20.0513 153.312 13.5915C155.21 13.5915 157.108 13.5915 159.063 13.5915C159.094 14.3291 159.125 15.0667 159.157 15.8267C159.347 15.5708 159.347 15.5708 159.54 15.3098C161.605 12.607 165.488 12.1091 168.044 14.2411Z" fill="#00B0F0"/>
<path d="M208.006 15.0484C209.766 16.8102 210.599 19.0801 210.921 21.7078C210.921 22.5066 210.921 23.3053 210.921 24.1282C207 24.1282 203.08 24.1282 199.04 24.1282C199.296 26.0223 199.296 26.0223 200.264 27.3978C201.181 28.0754 202.297 28.2661 203.358 28.0304C203.886 27.8592 204.407 27.6533 204.729 27.1044C204.96 26.7203 205.135 26.4756 205.534 26.3609C205.866 26.3368 206.191 26.3396 206.524 26.3526C206.645 26.3539 206.765 26.3551 206.889 26.3564C207.208 26.3605 207.526 26.3684 207.844 26.3781C208.169 26.3872 208.495 26.3912 208.82 26.3956C209.458 26.4053 210.095 26.42 210.732 26.4386C210.704 26.6127 210.676 26.7868 210.647 26.9608C210.631 27.0577 210.615 27.1547 210.599 27.2545C210.518 27.6675 210.384 28.0291 210.219 28.4051C210.187 28.48 210.154 28.5549 210.121 28.632C209.256 30.5198 207.682 31.7021 205.971 32.36C203.208 33.3228 200.041 33.2304 197.449 31.6438C195.601 30.4506 194.22 28.7008 193.621 26.3153C192.937 23.4053 193.154 20.1831 194.429 17.5379C195.615 15.2892 197.51 13.8766 199.683 13.264C202.452 12.5451 205.736 12.9319 208.006 15.0484ZM199.57 18.9037C199.351 19.2718 199.351 19.2718 199.135 20.1676C201.251 20.1676 203.366 20.1676 205.546 20.1676C205.423 19.302 205.126 18.7096 204.539 18.1529C202.88 16.8418 200.899 17.2384 199.57 18.9037Z" fill="#00B0F0"/>
<path d="M188.552 14.1617C190.028 15.6765 190.686 17.6961 190.838 19.9664C190.85 20.3909 190.85 20.8148 190.849 21.2395C190.849 21.3628 190.849 21.4861 190.849 21.6131C190.849 22.0175 190.848 22.4219 190.847 22.8263C190.847 23.1079 190.847 23.3895 190.847 23.6711C190.846 24.3346 190.846 24.9981 190.845 25.6617C190.843 26.6248 190.843 27.588 190.842 28.5512C190.841 29.8978 190.839 31.2444 190.838 32.5911C188.94 32.5911 187.042 32.5911 185.086 32.5911C185.082 31.8244 185.077 31.0576 185.072 30.2676C185.069 29.7798 185.066 29.2921 185.062 28.8043C185.056 28.0313 185.051 27.2583 185.047 26.4853C185.043 25.8615 185.039 25.2378 185.034 24.6141C185.032 24.377 185.031 24.1399 185.029 23.9027C185.09 21.2712 185.09 21.2712 184.102 19.0168C183.331 18.4821 182.357 18.4813 181.498 18.6987C180.855 18.9687 180.487 19.3949 180.166 20.0987C179.603 21.5837 179.681 23.2955 179.673 24.8884C179.671 25.1116 179.669 25.3348 179.667 25.558C179.663 26.1402 179.659 26.7224 179.655 27.3046C179.651 28.006 179.645 28.7073 179.639 29.4087C179.631 30.4695 179.625 31.5303 179.618 32.5911C177.72 32.5911 175.822 32.5911 173.866 32.5911C173.864 30.1312 173.862 27.6714 173.861 25.2115C173.861 24.0694 173.86 22.9274 173.859 21.7853C173.858 20.7902 173.857 19.7952 173.857 18.8001C173.857 18.2729 173.857 17.7457 173.856 17.2185C173.855 16.7229 173.855 16.2272 173.855 15.7316C173.855 15.5491 173.855 15.3667 173.855 15.1842C173.854 14.9362 173.854 14.6882 173.855 14.4402C173.855 14.3011 173.855 14.162 173.854 14.0186C173.866 13.71 173.866 13.71 173.96 13.5983C174.137 13.5878 174.314 13.5851 174.49 13.5856C174.66 13.5856 174.66 13.5856 174.834 13.5856C174.957 13.5862 175.08 13.5868 175.207 13.5874C175.334 13.5876 175.461 13.5877 175.587 13.5878C175.921 13.5883 176.255 13.5894 176.589 13.5906C176.93 13.5917 177.271 13.5922 177.611 13.5928C178.28 13.594 178.949 13.596 179.618 13.5983C179.649 14.3356 179.68 15.073 179.712 15.8327C179.942 15.5216 179.942 15.5216 180.177 15.2043C182.099 12.6955 186.186 12.0823 188.552 14.1617Z" fill="#00B0F0"/>
<path d="M26.3062 7C28.2042 7 30.1022 7 32.0577 7C32.0577 15.4451 32.0577 23.8901 32.0577 32.5911C30.1597 32.5911 28.2617 32.5911 26.3062 32.5911C26.3062 24.146 26.3062 15.701 26.3062 7Z" fill="black"/>
<path d="M229.024 10.2055C229.759 10.2034 230.495 10.2014 231.23 10.2003C231.572 10.1998 231.915 10.199 232.257 10.1979C232.587 10.1968 232.916 10.1962 233.246 10.1959C233.433 10.1956 233.621 10.1949 233.808 10.1941C233.921 10.1941 234.034 10.194 234.151 10.194C234.302 10.1937 234.302 10.1937 234.455 10.1934C234.681 10.2055 234.681 10.2055 234.775 10.3066C234.784 10.4649 234.787 10.6236 234.786 10.7822C234.786 10.934 234.786 10.934 234.786 11.0889C234.786 11.1989 234.785 11.309 234.785 11.4224C234.785 11.5344 234.784 11.6465 234.784 11.762C234.784 12.1215 234.783 12.4811 234.781 12.8406C234.781 13.0837 234.78 13.3268 234.78 13.5699C234.779 14.1673 234.777 14.7646 234.775 15.362C234.869 15.3615 234.963 15.3609 235.06 15.3604C235.406 15.3586 235.753 15.3574 236.1 15.3564C236.25 15.3559 236.4 15.3552 236.55 15.3544C236.766 15.3532 236.982 15.3526 237.197 15.3521C237.265 15.3516 237.332 15.3511 237.402 15.3505C237.564 15.3505 237.725 15.3557 237.887 15.362C238.039 15.5252 237.993 15.7022 237.993 15.9278C237.994 16.0266 237.994 16.1255 237.994 16.2273C237.994 16.3886 237.994 16.3886 237.994 16.5532C237.994 16.6628 237.994 16.7723 237.994 16.8852C237.994 17.1175 237.994 17.3497 237.994 17.5819C237.993 17.9387 237.994 18.2955 237.994 18.6523C237.994 18.8773 237.994 19.1023 237.994 19.3273C237.994 19.4348 237.994 19.5424 237.994 19.6532C237.994 19.8014 237.994 19.8014 237.993 19.9527C237.993 20.0402 237.993 20.1277 237.993 20.2178C237.981 20.4174 237.981 20.4174 237.887 20.5185C237.656 20.5274 237.428 20.5301 237.197 20.5284C237.094 20.5281 237.094 20.5281 236.988 20.5279C236.767 20.5274 236.546 20.5261 236.325 20.5248C236.176 20.5243 236.026 20.5238 235.877 20.5234C235.51 20.5223 235.143 20.5206 234.775 20.5185C234.776 20.5804 234.776 20.6423 234.776 20.7061C234.778 22.2106 234.779 23.715 234.78 25.2195C234.781 25.947 234.782 26.6746 234.783 27.4021C234.784 28.036 234.784 28.6699 234.784 29.3038C234.784 29.6397 234.785 29.9755 234.785 30.3114C234.786 30.6857 234.786 31.06 234.786 31.4343C234.787 31.5465 234.787 31.6586 234.787 31.7742C234.787 31.8755 234.787 31.9769 234.787 32.0814C234.787 32.17 234.787 32.2586 234.787 32.3499C234.775 32.5503 234.775 32.5503 234.681 32.6514C232.814 32.6514 230.947 32.6514 229.024 32.6514C229.024 28.6475 229.024 24.6437 229.024 20.5185C228.402 20.5185 227.779 20.5185 227.138 20.5185C227.138 18.8168 227.138 17.1152 227.138 15.362C227.76 15.362 228.383 15.362 229.024 15.362C229.024 13.6604 229.024 11.9587 229.024 10.2055Z" fill="#00B0F0"/>
<path d="M36.5269 10.1934C36.6272 10.1936 36.7275 10.1938 36.8308 10.194C37.0007 10.1941 37.0007 10.1941 37.174 10.1941C37.2973 10.1946 37.4205 10.1951 37.5475 10.1956C37.6742 10.1958 37.8009 10.196 37.9276 10.1961C38.2617 10.1965 38.5957 10.1975 38.9297 10.1986C39.2704 10.1996 39.611 10.2001 39.9517 10.2006C40.6205 10.2016 41.2892 10.2036 41.958 10.2055C41.958 11.9072 41.958 13.6088 41.958 15.362C43.0159 15.362 44.0738 15.362 45.1638 15.362C45.1638 17.0636 45.1638 18.7653 45.1638 20.5185C44.1059 20.5185 43.048 20.5185 41.958 20.5185C41.958 24.5223 41.958 28.5262 41.958 32.6514C40.0911 32.6514 38.2243 32.6514 36.3008 32.6514C36.2065 32.5503 36.2065 32.5503 36.1949 32.3499C36.195 32.217 36.195 32.217 36.1952 32.0814C36.195 31.98 36.1949 31.8786 36.1948 31.7742C36.1951 31.662 36.1954 31.5499 36.1958 31.4343C36.1958 31.317 36.1958 31.1996 36.1958 31.0787C36.1958 30.6886 36.1966 30.2985 36.1973 29.9085C36.1975 29.6388 36.1976 29.3692 36.1977 29.0996C36.198 28.4612 36.1988 27.8227 36.1997 27.1843C36.2008 26.4576 36.2013 25.7309 36.2018 25.0042C36.2027 23.5089 36.2044 22.0137 36.2065 20.5185C35.6153 20.5185 35.0241 20.5185 34.415 20.5185C34.415 18.8168 34.415 17.1152 34.415 15.362C35.0062 15.362 35.5974 15.362 36.2065 15.362C36.206 15.2094 36.2055 15.0568 36.205 14.8995C36.2033 14.3356 36.2022 13.7716 36.2013 13.2077C36.2008 12.9632 36.2002 12.7187 36.1994 12.4741C36.1982 12.1235 36.1977 11.773 36.1973 11.4224C36.1968 11.3123 36.1963 11.2022 36.1958 11.0889C36.1958 10.937 36.1958 10.937 36.1958 10.7822C36.1956 10.6926 36.1954 10.603 36.1952 10.5107C36.2118 10.2104 36.2458 10.2085 36.5269 10.1934Z" fill="black"/>
<path d="M225.064 14.1242C225.098 14.3639 225.098 14.3639 225.096 14.6648C225.096 14.7772 225.096 14.8896 225.096 15.0054C225.095 15.1271 225.093 15.2488 225.092 15.3742C225.091 15.4985 225.091 15.6229 225.09 15.751C225.089 16.1493 225.085 16.5476 225.082 16.9459C225.08 17.2155 225.079 17.485 225.078 17.7546C225.075 18.4164 225.07 19.0782 225.064 19.7401C224.789 19.6124 224.517 19.483 224.25 19.3336C224.19 19.3 224.129 19.2664 224.067 19.2319C223.942 19.1621 223.816 19.0921 223.691 19.022C222.78 18.5181 221.692 18.4367 220.727 18.8179C220.32 19.0169 219.985 19.2806 219.648 19.611C219.501 19.7401 219.501 19.7401 219.312 19.7401C219.291 19.7968 219.27 19.8536 219.248 19.9121C219.141 20.1432 219.031 20.3251 218.894 20.5315C218.311 21.4754 218.215 22.6161 218.328 23.7455C218.494 24.8389 218.905 25.9011 219.69 26.5671C220.779 27.3524 221.823 27.584 223.084 27.3379C223.735 27.1438 224.267 26.8226 224.811 26.3658C224.97 26.2368 224.97 26.2368 225.064 26.2368C225.064 28.1264 225.064 30.0159 225.064 31.9627C222.282 33.181 219.707 33.381 216.955 31.9627C216.302 31.5756 215.726 31.0773 215.164 30.5313C215.087 30.4577 215.01 30.3842 214.931 30.3084C213.283 28.663 212.441 26.4421 212.253 23.9519C212.158 21.117 212.767 18.4741 214.41 16.3265C215.052 15.5337 215.762 14.8797 216.578 14.3445C216.667 14.2857 216.756 14.2269 216.848 14.1664C219.182 12.7151 222.765 12.3339 225.064 14.1242Z" fill="#00B0F0"/>
<path d="M88.9129 13.1597C88.9129 15.3592 88.9129 17.5588 88.9129 19.825C88.5084 19.6759 88.1039 19.5268 87.6872 19.3731C86.4366 19.137 85.0879 19.1728 84.01 20.051C83.1448 20.9049 82.8544 22.4097 82.7345 23.6903C82.666 24.5441 82.6678 25.4013 82.6601 26.2583C82.6582 26.4416 82.6562 26.6248 82.6542 26.8081C82.649 27.2869 82.6443 27.7657 82.6398 28.2445C82.6342 28.8209 82.6279 29.3973 82.6218 29.9737C82.6126 30.8461 82.6042 31.7185 82.5957 32.5909C80.6977 32.5909 78.7996 32.5909 76.8441 32.5909C76.842 30.1035 76.8403 27.6161 76.8392 25.1288C76.8387 23.9739 76.8381 22.8191 76.837 21.6642C76.8361 20.658 76.8355 19.6519 76.8353 18.6457C76.8351 18.1126 76.8348 17.5795 76.8342 17.0463C76.8335 16.5452 76.8333 16.044 76.8335 15.5428C76.8334 15.3583 76.8332 15.1738 76.8329 14.9893C76.8324 14.7385 76.8325 14.4878 76.8328 14.237C76.8327 14.0963 76.8326 13.9556 76.8325 13.8107C76.8441 13.4986 76.8441 13.4986 76.9384 13.3856C77.1149 13.375 77.2917 13.3723 77.4684 13.3728C77.6383 13.3728 77.6383 13.3728 77.8116 13.3728C77.9349 13.3734 78.0581 13.374 78.1851 13.3746C78.3118 13.3748 78.4385 13.375 78.5652 13.3751C78.8993 13.3755 79.2333 13.3766 79.5674 13.3779C79.908 13.379 80.2486 13.3795 80.5893 13.3801C81.2581 13.3813 81.9269 13.3833 82.5957 13.3856C82.6268 14.3549 82.6579 15.3242 82.6899 16.3229C82.9077 15.9874 83.1256 15.6518 83.35 15.3061C84.8032 13.3305 86.8384 13.1597 88.9129 13.1597Z" fill="black"/>
<path d="M47.1246 15.3086C49.0635 15.3086 51.0024 15.3086 53 15.3086C53 21.1468 53 26.9849 53 33C51.0611 33 49.1222 33 47.1246 33C46.9415 32.8065 47.0143 32.4788 47.0142 32.221C47.0141 32.1496 47.0139 32.0782 47.0138 32.0046C47.0134 31.7635 47.0137 31.5225 47.014 31.2814C47.0139 31.1093 47.0137 30.9372 47.0135 30.7651C47.013 30.2963 47.0132 29.8276 47.0135 29.3588C47.0138 28.8694 47.0135 28.38 47.0134 27.8905C47.0132 27.0684 47.0134 26.2463 47.0139 25.4242C47.0144 24.4724 47.0143 23.5205 47.0137 22.5686C47.0133 21.7529 47.0132 20.9372 47.0135 20.1215C47.0136 19.6336 47.0137 19.1458 47.0133 18.6579C47.013 18.1993 47.0132 17.7408 47.0138 17.2822C47.0139 17.1134 47.0139 16.9447 47.0137 16.7759C47.0134 16.5464 47.0138 16.317 47.0142 16.0876C47.0143 15.9589 47.0143 15.8302 47.0144 15.6976C47.0267 15.4121 47.0267 15.4121 47.1246 15.3086Z" fill="black"/>
<path d="M51.8542 7.62321C52.5107 8.14998 52.9042 8.90085 52.9967 9.73118C53.0331 10.6404 52.7714 11.4 52.1872 12.0996C51.5869 12.6838 50.8477 12.9972 50.0126 13C49.0956 12.9827 48.4725 12.7442 47.8103 12.1002C47.0974 11.2561 46.9308 10.4889 47.0233 9.39548C47.1865 8.55646 47.6733 7.90072 48.3738 7.41496C49.5014 6.76696 50.7962 6.90941 51.8542 7.62321Z" fill="black"/>
</svg>
