<svg width="200" height="40" viewBox="0 0 200 40" fill="none" xmlns="http://www.w3.org/2000/svg">
<path d="M21.2422 21.9501C21.2171 24.4172 19.5927 26.5118 17.2117 27.4244C14.9544 28.2896 12.6323 28.6211 10.2176 28.5997C7.02239 28.5713 3.82656 28.582 0.631189 28.6035C0.12289 28.607 -0.000744947 28.4598 3.36948e-06 27.995C0.0135835 19.5393 0.0135212 11.0835 6.2263e-05 2.62776C-0.000672204 2.16531 0.118116 2.01468 0.628958 2.0179C4.01343 2.0392 7.39928 1.97817 10.7823 2.0472C12.9333 2.09109 14.9911 2.58068 16.7364 3.87774C17.7531 4.63328 18.2351 5.70604 18.4913 6.85278C18.8831 8.60674 18.8471 10.3475 18.0745 12.0323C17.6789 12.8951 17.0548 13.5554 16.2426 14.0738C16.1344 14.1429 16.0324 14.2208 15.8418 14.355C17.7235 14.7235 19.3279 15.4091 20.2806 17.0184C21.1815 18.5403 21.4632 20.1776 21.2422 21.9501ZM13.4698 21.8076C14.2398 20.3628 14.0302 18.2241 11.5517 17.8888C10.2924 17.7184 9.00942 17.6991 7.73559 17.6431C7.62623 17.6383 7.40641 17.8703 7.40459 17.9944C7.3816 19.5692 7.39436 21.1443 7.38451 22.7193C7.38259 23.0264 7.51519 23.1315 7.82349 23.119C8.89469 23.0756 9.98049 23.1297 11.0334 22.9772C11.9117 22.85 12.8427 22.6576 13.4698 21.8076ZM11.6091 11.2103C11.6784 10.6334 11.7837 10.0578 11.8081 9.47908C11.8401 8.72272 11.4704 8.1278 10.698 7.92216C9.80535 7.68448 8.87697 7.56475 7.96154 7.40713C7.53129 7.33305 7.3687 7.50297 7.37784 7.93668C7.40534 9.2417 7.38623 10.5476 7.3899 11.8531C7.39033 12.0071 7.41928 12.161 7.43846 12.3487C8.09903 12.3487 8.72594 12.4326 9.31599 12.3286C10.149 12.1818 11.0459 12.0689 11.6091 11.2103Z" fill="#003C7B"/>
<path d="M190.12 19.1496C193.361 22.3295 196.788 25.2804 200 28.4319C199.963 28.4858 199.925 28.5398 199.887 28.5937C199.706 28.5937 199.524 28.5937 199.342 28.5937C196.561 28.5937 193.781 28.59 191 28.5987C190.667 28.5997 190.374 28.5844 190.205 28.2651C190.197 28.2502 190.177 28.2416 190.164 28.2288C188.127 26.2618 186.089 24.2963 184.057 22.3253C183.8 22.0761 183.573 21.7983 183.257 21.4502C183.257 23.8394 183.257 26.1209 183.257 28.4894C180.753 28.4894 178.292 28.4894 175.786 28.4894C175.786 19.7478 175.786 10.9273 175.786 2.06763C178.227 2.06763 180.693 2.06763 183.204 2.06763C183.204 7.03536 183.204 12.0087 183.204 17.1507C184.201 16.2126 185.074 15.3676 185.974 14.5492C187.276 13.3648 188.596 12.197 189.917 11.0314C190.027 10.9343 190.206 10.8559 190.353 10.8556C193.323 10.8498 196.292 10.8567 199.262 10.8621C199.276 10.8621 199.29 10.8781 199.371 10.9264C199.269 11.0447 199.186 11.1714 199.074 11.2671C197.64 12.4888 196.199 13.7035 194.765 14.9255C193.9 15.6625 193.045 16.4104 192.184 17.1508C191.49 17.7472 190.79 18.3383 190.099 18.9383C190.066 18.9677 190.092 19.0594 190.12 19.1496Z" fill="#FF5A3A"/>
<path d="M37.3783 11.0357C37.8155 11.3458 38.2209 11.6305 38.721 11.9818C38.721 11.5691 38.731 11.2064 38.7178 10.8444C38.7075 10.5621 38.7939 10.415 39.1295 10.4164C41.1716 10.4249 43.2139 10.4242 45.256 10.4173C45.5577 10.4163 45.6495 10.54 45.645 10.8062C45.6347 11.4151 45.6426 12.0244 45.6427 12.6335C45.6427 17.7215 45.6429 22.8094 45.6426 27.8974C45.6425 28.5913 45.6414 28.5923 44.8938 28.5925C43.0596 28.5931 41.225 28.5714 39.3915 28.6053C38.8269 28.6158 38.657 28.4418 38.7123 27.9351C38.7525 27.5661 38.7201 27.1899 38.7201 26.6349C38.3132 27.0557 38.0243 27.3719 37.7159 27.6701C36.7068 28.6454 35.373 28.9681 34.0322 29.1029C32.1597 29.2911 30.3194 29.0726 28.6057 28.2175C27.0096 27.4212 25.8132 26.2305 24.9248 24.7887C22.9156 21.5283 22.7832 18.1381 24.582 14.784C25.9504 12.2326 28.1243 10.5239 31.1909 10.0183C33.3614 9.6605 35.4171 9.99679 37.3783 11.0357ZM30.5597 18.8159C30.5636 19.3341 30.484 19.8676 30.5856 20.3681C31.1372 23.0863 34.7055 24.4508 37.1717 22.9019C38.1692 22.2755 38.6835 21.3705 38.8613 20.2528C39.104 18.7275 38.7441 17.3727 37.4574 16.4135C36.0774 15.3849 34.4835 15.3184 32.8699 15.9327C31.543 16.4378 30.9039 17.4685 30.5597 18.8159Z" fill="#003C7B"/>
<path d="M88.8961 20.6457C88.6142 21.3004 88.9191 21.9044 89.1469 22.48C89.5526 23.5051 90.3679 24.1106 91.5238 24.3166C92.7667 24.5381 93.9703 24.5379 95.0801 23.8767C95.3127 23.7381 95.567 23.5576 95.6847 23.336C95.934 22.8666 96.2866 22.7559 96.8156 22.766C98.5167 22.7982 100.219 22.777 101.921 22.7792C102.141 22.7795 102.361 22.7966 102.636 22.8082C102.349 24.0927 101.829 25.1948 100.96 26.1431C99.3264 27.9281 97.1624 28.72 94.7738 29.02C92.113 29.3541 89.5231 29.1213 87.0795 27.9523C84.5086 26.7224 82.8061 24.851 82.1835 22.1502C81.5911 19.5806 81.7317 17.0545 83.0242 14.7118C84.3715 12.2699 86.6052 10.7982 89.4327 10.2225C90.5804 9.98888 91.7833 9.87562 92.9564 9.90127C95.9454 9.96666 98.6151 10.8332 100.61 13.0805C101.7 14.3082 102.35 15.7468 102.614 17.3192C102.77 18.2473 102.79 19.1967 102.85 20.1376C102.86 20.2955 102.767 20.4593 102.623 20.6292C97.9818 20.6406 93.4389 20.6432 88.8961 20.6457ZM93.6066 16.8706C94.5308 16.8706 95.455 16.8706 96.3738 16.8706C96.4791 15.7205 94.8494 14.2896 93.0226 14.1947C91.2663 14.1034 89.1001 15.0217 88.9617 16.8706C90.4747 16.8706 91.9839 16.8706 93.6066 16.8706Z" fill="#003C7B"/>
<path d="M169.626 24.5058C169.754 24.3991 169.871 24.2203 170.013 24.2003C170.339 24.1543 170.676 24.1857 171.107 24.1857C170.423 23.6045 169.805 23.1043 169.224 22.5675C169.066 22.4221 168.946 22.1682 168.94 21.9606C168.91 20.9984 168.927 20.0349 168.927 19.0472C168.466 19.0472 168.056 19.0472 167.574 19.0472C167.574 19.7043 167.574 20.37 167.574 21.1704C166.065 19.8845 164.668 18.6935 163.251 17.4865C160.654 19.704 158.079 21.9033 155.428 24.1669C155.903 24.1669 156.316 24.1669 156.753 24.1669C156.753 25.6634 156.753 27.0905 156.753 28.5558C155.575 28.5558 154.396 28.5558 153.182 28.5558C153.182 22.5289 153.182 16.5012 153.182 10.4457C155.459 10.4457 157.722 10.4457 160.046 10.4457C160.046 11.1191 160.046 11.8053 160.046 12.5158C160.674 11.968 161.194 11.3728 161.847 10.9713C163.471 9.97297 165.287 9.6804 167.191 9.9842C168.023 10.1169 168.881 10.2385 169.655 10.5353C171.507 11.2458 172.4 12.7586 172.874 14.4805C173.125 15.391 173.214 16.3624 173.224 17.3078C173.263 20.8558 173.24 24.4044 173.24 27.9527C173.24 28.1466 173.24 28.3405 173.24 28.5843C172.07 28.5843 170.942 28.5862 169.814 28.5788C169.755 28.5784 169.698 28.4982 169.655 28.3731C169.687 27.5961 169.722 26.901 169.716 26.2062C169.711 25.6392 169.658 25.0725 169.626 24.5058Z" fill="#FF5A3A"/>
<path d="M124.881 12.8911C124.881 9.25716 124.881 5.67699 124.881 2.06274C127.342 2.06274 129.769 2.06274 132.251 2.06274C132.251 8.88458 132.251 15.6994 132.251 22.5685C134.997 22.5685 137.689 22.5685 140.407 22.5685C140.407 24.587 140.407 26.5512 140.407 28.5545C135.258 28.5545 130.109 28.5545 124.881 28.5545C124.881 23.3551 124.881 18.15 124.881 12.8911Z" fill="#FF5A3A"/>
<path d="M112.621 23.9691C112.621 25.3848 112.61 26.7469 112.628 28.1087C112.633 28.485 112.498 28.6021 112.106 28.599C110.233 28.584 108.36 28.5722 106.488 28.6049C105.931 28.6147 105.798 28.4523 105.799 27.9406C105.816 20.5035 105.81 13.0663 105.81 5.62908C105.81 4.58966 105.825 3.54997 105.803 2.51098C105.795 2.13209 105.934 2.0193 106.325 2.02242C108.197 2.03737 110.07 2.04905 111.942 2.01652C112.497 2.00688 112.634 2.16528 112.633 2.67902C112.616 9.75774 112.621 16.8365 112.621 23.9691Z" fill="#003C7B"/>
<path d="M66.5361 12.2459C66.5369 11.7264 66.5456 11.2605 66.5354 10.795C66.5294 10.5179 66.6546 10.4163 66.9422 10.4172C68.9843 10.4231 71.0264 10.4255 73.0684 10.4159C73.4255 10.4142 73.4613 10.5958 73.4588 10.8588C73.4518 11.5902 73.4563 12.3218 73.4563 12.8577C73.9437 12.4618 74.4893 11.9462 75.1095 11.5306C76.1993 10.8003 77.4137 10.3507 78.7717 10.3053C79.3541 10.2858 79.9353 10.238 80.5171 10.2035C80.7767 10.188 80.9512 10.2448 80.9497 10.5486C80.9402 12.4832 80.9412 14.4178 80.9356 16.3524C80.9355 16.399 80.9 16.4456 80.8563 16.553C79.7104 15.939 78.4638 15.9538 77.2235 16.0185C76.1829 16.0727 75.185 16.3356 74.5574 17.1989C73.9518 18.0321 73.6094 18.9954 73.5821 20.0056C73.51 22.6695 73.4822 25.3347 73.4689 27.9995C73.4665 28.4715 73.3315 28.6103 72.8306 28.6032C70.9402 28.5765 69.0489 28.5758 67.1586 28.6036C66.6485 28.6111 66.525 28.4564 66.5264 27.9926C66.5419 22.7616 66.5362 17.5306 66.5361 12.2459Z" fill="#003C7B"/>
<path d="M62.1863 16.0099C61.4191 16.0376 60.7022 16.0356 59.9919 16.0996C58.3136 16.2509 57.4924 17.3098 57.1396 18.7252C56.9213 19.6015 56.8049 20.5171 56.7847 21.418C56.7354 23.6216 56.7562 25.8269 56.7785 28.0313C56.7831 28.485 56.6284 28.6068 56.1645 28.6016C54.2541 28.58 52.3432 28.5837 50.4326 28.5995C50.0103 28.6029 49.8338 28.512 49.835 28.0656C49.8496 22.3301 49.8446 16.5945 49.8458 10.859C49.8458 10.7358 49.8596 10.6127 49.8688 10.4585C49.9911 10.4446 50.0981 10.422 50.2051 10.4218C52.2103 10.4194 54.2157 10.4288 56.2208 10.4119C56.6377 10.4083 56.793 10.5239 56.7764 10.9301C56.7475 11.6387 56.7684 12.3491 56.7684 12.9958C57.5113 12.3852 58.2092 11.7107 59.0124 11.1791C59.8521 10.6233 60.8535 10.384 61.8821 10.3118C62.5383 10.2658 63.1959 10.2209 63.8531 10.2192C63.9876 10.2189 64.2393 10.4123 64.2403 10.5182C64.259 12.4713 64.2481 14.4247 64.2407 16.378C64.2406 16.408 64.2066 16.4379 64.193 16.4602C63.5395 16.3097 62.8895 16.1599 62.1863 16.0099Z" fill="#003C7B"/>
<path d="M150.308 17.0857C150.308 20.9356 150.308 24.7317 150.308 28.5606C147.995 28.5606 145.718 28.5606 143.413 28.5606C143.413 22.534 143.413 16.5189 143.413 10.4607C145.677 10.4607 147.953 10.4607 150.308 10.4607C150.308 12.6398 150.308 14.8359 150.308 17.0857Z" fill="#FF5A3A"/>
<path d="M145.332 0.304294C147.757 -0.723208 150.425 1.00337 150.677 3.21027C150.894 5.10492 149.53 6.89016 147.797 7.25791C145.293 7.78904 143.077 5.96957 143.031 3.82929C142.996 2.17068 143.78 1.04966 145.332 0.304294Z" fill="#FF5A3A"/>
<path d="M161.406 35.7597C161.003 36.6864 160.619 37.5739 160.235 38.4615C160.185 38.4699 160.136 38.4783 160.086 38.4867C159.579 37.27 159.073 36.0533 158.552 34.8027C158.042 36.0381 157.547 37.2375 157.018 38.5173C156.89 38.3754 156.734 38.271 156.68 38.131C156.01 36.3992 155.354 34.6626 154.699 32.9256C154.656 32.8137 154.652 32.689 154.631 32.5751C155.499 32.3151 155.661 32.3858 155.946 33.119C156.294 34.0136 156.643 34.9076 157.032 35.9082C157.528 34.6271 157.981 33.4576 158.434 32.2881C158.484 32.2696 158.533 32.2511 158.582 32.2327C159.147 33.3575 159.535 34.5585 160.113 35.8215C160.51 34.8149 160.826 33.8876 161.241 33.0028C161.538 32.3728 161.741 32.3493 162.556 32.5651C162.178 33.6179 161.801 34.6693 161.406 35.7597Z" fill="#003C7B"/>
<path d="M7.87552 33.6278C8.3927 34.3502 8.6082 35.0744 8.43257 35.9337C8.25338 36.8104 7.74909 37.4313 7.01737 37.9062C6.31482 38.3623 5.53444 38.6367 4.66042 38.4311C3.48405 38.1544 2.61514 37.5371 2.11322 36.4496C1.60689 35.3526 2.21043 33.5534 3.29234 32.8874C4.22724 32.3119 5.2309 32.1461 6.2284 32.4894C6.8301 32.6965 7.31085 33.219 7.87552 33.6278ZM3.18857 35.5154C3.29734 36.9817 4.53931 37.5465 5.81381 37.237C7.0369 36.9399 7.31866 35.8299 7.09531 34.7941C6.91101 33.9394 6.21478 33.6438 5.51072 33.3807C5.2786 33.294 4.93384 33.4793 4.64024 33.5387C3.50791 33.7679 3.25586 34.4757 3.18857 35.5154Z" fill="#FF5A3A"/>
<path d="M173.723 38.2044C173.701 36.4233 173.714 34.6874 173.683 32.9522C173.674 32.4554 173.953 32.463 174.322 32.4598C174.701 32.4566 174.998 32.4721 174.949 32.9607C174.913 33.3331 174.954 33.7119 174.94 34.0872C174.93 34.3696 175.013 34.5206 175.35 34.5123C175.991 34.4967 176.634 34.4993 177.276 34.511C177.575 34.5165 177.678 34.394 177.668 34.1253C177.656 33.7857 177.7 33.4417 177.659 33.1063C177.595 32.5773 177.817 32.3817 178.356 32.465C178.467 32.4821 178.58 32.4842 178.747 32.4976C178.747 34.4388 178.747 36.3753 178.747 38.3419C178.426 38.3419 178.095 38.3419 177.667 38.3419C177.667 37.7597 177.667 37.1769 177.667 36.5941C177.667 35.5838 177.667 35.5837 176.577 35.5838C176.199 35.5838 175.82 35.6048 175.444 35.5787C175.036 35.5504 174.918 35.7156 174.937 36.0785C174.961 36.5605 174.943 37.0445 174.942 37.5276C174.942 38.4369 174.684 38.5921 173.723 38.2044Z" fill="#003C7C"/>
<path d="M51.6729 34.956C51.751 35.144 51.8741 35.2866 51.8784 35.4324C51.8992 36.1304 51.888 36.8293 51.888 37.5278C51.8879 38.4705 51.8651 38.4873 50.7527 38.3163C50.7527 37.8653 50.7676 37.4034 50.7485 36.9427C50.7295 36.4835 50.7087 36.0197 50.6176 35.5708C50.592 35.4445 50.3276 35.303 50.1533 35.2744C49.7611 35.2101 49.4345 35.3496 49.3977 35.7721C49.3376 36.4608 49.2811 37.1527 49.2894 37.8425C49.2947 38.2744 49.1481 38.3931 48.7037 38.3957C48.2396 38.3985 48.1287 38.2383 48.1312 37.8261C48.1354 37.1185 48.0567 36.4108 48.0418 35.7026C48.0332 35.2891 47.7384 35.194 47.4486 35.2826C47.1951 35.3601 46.8454 35.5883 46.8097 35.7925C46.6945 36.4524 46.6727 37.132 46.6777 37.8037C46.6809 38.2379 46.5626 38.4007 46.0728 38.3977C45.5843 38.3947 45.5175 38.1952 45.5244 37.8079C45.5439 36.6997 45.5313 35.591 45.5313 34.3643C45.9577 34.4247 46.3314 34.4776 46.705 34.5305C47.7301 34.1067 48.5538 34.1799 49.0925 34.9254C49.6199 34.371 50.2804 34.1812 51.0175 34.4173C51.2635 34.4961 51.4497 34.7423 51.6729 34.956Z" fill="#FF5A3A"/>
<path d="M187.683 38.3699C187.528 38.2127 187.342 38.0606 187.332 37.8993C187.296 37.274 187.319 36.6457 187.315 36.0185C187.312 35.6193 187.271 35.2512 186.693 35.2601C186.134 35.2687 185.855 35.4982 185.845 36.0386C185.831 36.8038 185.842 37.5693 185.842 38.3676C185.554 38.3676 185.312 38.4187 185.115 38.3517C184.952 38.2964 184.729 38.1043 184.725 37.9681C184.694 36.8062 184.707 35.6432 184.707 34.436C185.122 34.4594 185.571 34.1793 185.804 34.7281C186.812 34.1344 187.651 34.1793 188.294 34.8828C188.842 34.3725 189.508 34.1646 190.228 34.4318C190.514 34.538 190.89 34.8609 190.907 35.1051C190.982 36.1705 190.939 37.2433 190.939 38.342C190.591 38.342 190.297 38.342 189.926 38.342C189.926 37.5798 189.938 36.8154 189.922 36.0515C189.908 35.3751 189.64 35.1457 189.047 35.2761C188.641 35.3653 188.453 35.6259 188.453 36.0146C188.452 36.5701 188.416 37.1282 188.461 37.6804C188.505 38.2217 188.314 38.4606 187.683 38.3699Z" fill="#003C7B"/>
<path d="M74.967 36.0877C75.0254 36.2606 75.0585 36.3967 75.1152 36.6306C75.4171 36.1039 75.766 35.6681 75.926 35.1771C76.1944 34.3534 76.4858 34.3354 77.3665 34.4619C77.1551 34.9569 76.975 35.449 76.7393 35.9158C76.2263 36.9318 75.6849 37.9349 75.1549 38.9431C75.1218 39.006 75.0787 39.0651 75.0528 39.1303C74.7217 39.9651 74.6076 40.0334 73.5658 39.963C73.5953 39.8179 73.6052 39.6704 73.6572 39.5378C73.7278 39.3578 73.7998 39.1654 73.9248 39.0196C74.5487 38.2918 74.4988 37.5213 74.1181 36.7253C73.8616 36.1891 73.5923 35.6584 73.3586 35.1856C73.1592 35.229 72.9541 35.3339 72.7767 35.3016C72.1534 35.1882 71.8979 35.3595 71.8649 35.9482C71.8204 36.7422 71.758 37.5354 71.7015 38.3553C71.4092 38.3553 71.1125 38.3553 70.7739 38.3553C70.7739 37.075 70.7739 35.7781 70.7739 34.4086C71.8618 34.4086 72.9715 34.3949 74.0798 34.4265C74.2142 34.4303 74.3885 34.6589 74.4617 34.8175C74.6468 35.2182 74.7847 35.6385 74.967 36.0877Z" fill="#FF5A3A"/>
<path d="M61.0581 35.5846C60.366 35.5847 59.7282 35.5847 59.066 35.5847C59.066 36.1664 59.066 36.6971 59.066 37.2299C59.83 37.2299 60.5888 37.2299 61.3857 37.2299C61.3857 37.6003 61.3857 37.963 61.3857 38.354C60.2381 38.354 59.1105 38.354 57.9438 38.354C57.9438 36.4211 57.9438 34.4794 57.9438 32.5015C59.076 32.5015 60.2173 32.5015 61.3604 32.5015C61.3786 32.5312 61.4109 32.5597 61.412 32.5892C61.4566 33.7593 61.4222 33.5243 60.4309 33.5407C59.9836 33.5482 59.536 33.542 59.0645 33.542C59.0645 33.8332 59.0645 34.1872 59.0645 34.597C59.8241 34.597 60.5891 34.597 61.4536 34.597C61.2478 34.9574 61.8028 35.4149 61.0581 35.5846Z" fill="#FF5A3A"/>
<path d="M81.4107 37.9524C80.4551 37.4502 80.0925 36.6558 80.0447 35.7073C80.0092 35.001 80.0308 34.315 80.4795 33.6784C81.3864 32.3917 83.3088 31.8976 84.7249 32.6853C84.8854 32.7746 85.0541 32.8506 85.2423 32.9443C85.2423 33.2631 85.2423 33.5981 85.2423 34.0128C85.0379 33.9428 84.8767 33.8891 84.7165 33.8326C84.2399 33.6644 83.7723 33.3825 83.2856 33.349C82.1271 33.2692 81.2153 34.1512 81.1776 35.2766C81.1525 36.0244 81.359 36.709 82.0896 37.0793C82.9411 37.511 83.8151 37.3565 84.6473 36.9548C84.8084 36.877 84.9545 36.7713 85.112 36.6757C85.5192 37.4943 85.1012 38.1906 84.1532 38.3844C83.1879 38.5816 82.2795 38.52 81.4107 37.9524Z" fill="#FF5A3A"/>
<path d="M131.471 33.7515C132.212 35.2859 132.942 36.7811 133.679 38.2913C132.619 38.4959 132.363 38.3924 132.034 37.5244C131.841 37.0164 131.555 36.7593 130.974 36.8745C130.938 36.8817 130.899 36.8749 130.861 36.8755C129.193 36.902 129.642 36.6559 128.997 38.0206C128.681 38.6897 128.136 38.228 127.718 38.3791C127.683 38.3388 127.648 38.2984 127.612 38.258C128.597 36.2586 129.582 34.2592 130.623 32.1443C130.949 32.7551 131.205 33.2337 131.471 33.7515ZM130.761 34.7327C130.416 34.8404 130.169 35.2629 130.102 35.8655C130.482 35.8655 130.86 35.8655 131.264 35.8655C131.088 35.4832 130.933 35.1455 130.761 34.7327Z" fill="#003C7C"/>
<path d="M144.406 37.2154C144.372 37.6275 144.339 37.9905 144.306 38.3407C143.157 38.4129 143.157 38.4129 143.157 37.4338C143.157 35.6972 143.157 33.9607 143.157 32.2247C143.234 32.1931 143.282 32.1583 143.332 32.1552C144.292 32.0957 144.293 32.0965 144.293 33.0098C144.293 33.5443 144.293 34.0788 144.293 34.5179C144.937 34.4788 145.539 34.3886 146.133 34.4219C146.691 34.4531 147.107 34.9032 147.12 35.4165C147.145 36.3807 147.128 37.3458 147.128 38.3126C147.042 38.3393 146.992 38.3673 146.941 38.3687C145.999 38.3944 146 38.3938 145.999 37.4808C145.999 36.9432 145.981 36.405 146 35.8681C146.016 35.4074 145.737 35.2731 145.329 35.2653C144.886 35.2569 144.464 35.3308 144.417 35.8471C144.377 36.2839 144.407 36.7265 144.406 37.2154Z" fill="#003C7C"/>
<path d="M21.3516 37.619C21.3516 35.8887 21.3516 34.2111 21.3516 32.4678C22.2071 32.4678 23.0437 32.3845 23.8462 32.5049C24.2168 32.5604 24.6898 32.9547 24.8237 33.298C25.2451 34.378 25.0907 35.7631 23.3022 35.6938C23.0207 35.6829 22.7383 35.6923 22.4006 35.6923C22.4006 36.5766 22.4006 37.4426 22.4006 38.3447C22.0379 38.3447 21.7295 38.3447 21.3516 38.3447C21.3516 38.1236 21.3516 37.8977 21.3516 37.619ZM22.4868 33.7519C22.4868 34.0963 22.4868 34.4407 22.4868 34.7246C22.7574 34.7246 22.9743 34.7667 23.1614 34.714C23.4012 34.6464 23.7875 34.5229 23.8057 34.3868C23.838 34.1456 23.716 33.7611 23.5212 33.647C23.2376 33.481 22.8279 33.3911 22.4868 33.7519Z" fill="#FF5A3A"/>
<path d="M31.4343 34.4057C31.5517 34.5667 31.6703 34.7256 31.6732 34.8864C31.691 35.8513 31.6946 36.8168 31.6719 37.7814C31.6672 37.9813 31.5348 38.3466 31.4559 38.3479C31.1007 38.3539 30.6324 38.5942 30.4467 38.0592C29.6118 38.6591 28.7902 38.6292 28.1467 37.9899C27.4402 37.2879 27.2656 35.7939 27.7721 35.172C28.6184 34.133 29.6248 34.1743 30.4403 34.525C30.7543 34.4849 31.0682 34.4447 31.4343 34.4057ZM28.7311 36.4848C28.7435 36.8618 28.7835 37.2195 29.2034 37.4191C29.6901 37.6506 30.1979 37.4501 30.459 36.907C30.7376 36.3275 30.5392 35.5628 30.067 35.3719C29.4309 35.1148 28.6583 35.3781 28.7311 36.4848Z" fill="#FF5A3A"/>
<path d="M166.315 34.9554C166.315 35.8854 166.326 36.7634 166.307 37.6409C166.302 37.872 166.243 38.2759 166.137 38.2985C165.81 38.3681 165.449 38.2916 164.937 38.2625C163.976 38.9504 162.434 38.3 162.234 36.7989C162.092 35.7318 162.473 34.8112 163.268 34.5187C163.58 34.4039 163.963 34.4716 164.288 34.3781C164.623 34.2818 164.826 34.6951 165.214 34.4858C165.487 34.3382 165.893 34.4111 166.277 34.3829C166.292 34.592 166.303 34.7476 166.315 34.9554ZM163.413 35.9398C163.431 36.2898 163.387 36.6557 163.482 36.986C163.628 37.4962 164.116 37.6365 164.616 37.3764C165.206 37.0693 165.44 36.0107 164.959 35.5764C164.76 35.3966 164.372 35.276 164.11 35.3241C163.867 35.3688 163.677 35.6739 163.413 35.9398Z" fill="#003C7C"/>
<path d="M17.9531 35.6988C18.0052 35.9829 18.0519 36.2214 18.1128 36.5322C17.0762 36.5322 16.1057 36.5322 15.1484 36.5322C15.0079 37.1219 15.3907 37.4232 15.7931 37.4876C16.3474 37.5763 16.8106 37.2701 17.1048 36.7849C17.1378 36.7849 17.18 36.7729 17.2087 36.7866C18.1773 37.2474 18.1719 37.4378 17.2665 38.0632C16.0851 38.8791 14.7087 38.5317 14.0153 37.3206C13.6845 36.7428 13.6969 35.9982 14.0587 35.3872C14.5258 34.5987 15.2554 34.27 16.2494 34.3804C17.132 34.4784 17.7848 34.7439 17.9531 35.6988ZM15.1205 35.7936C15.7094 35.8455 16.2983 35.8974 16.8871 35.9492C16.92 35.87 16.9529 35.7908 16.9858 35.7116C16.735 35.5619 16.5012 35.3332 16.2296 35.2809C15.8101 35.2 15.3565 35.2218 15.1205 35.7936Z" fill="#FF5A3A"/>
<path d="M193.268 37.2731C193.833 37.7275 194.3 37.4906 195.057 36.738C195.301 36.9092 195.556 37.0889 195.812 37.2686C195.59 37.5183 195.395 37.7982 195.139 38.0122C194.222 38.7796 192.829 38.6236 192.071 37.6555C191.561 37.0042 191.526 36.2589 191.846 35.5398C192.124 34.9147 192.608 34.4828 193.393 34.3889C194.271 34.2838 195.072 34.3841 195.552 35.1372C195.8 35.5254 195.831 36.0376 195.977 36.5522C194.887 36.5522 193.872 36.5522 192.749 36.5522C192.942 36.8374 193.085 37.0483 193.268 37.2731ZM194.025 35.266C193.29 35.2706 193.096 35.3893 193.026 35.8724C193.582 35.8724 194.138 35.8724 194.693 35.8724C194.721 35.827 194.748 35.7816 194.775 35.7362C194.555 35.5821 194.335 35.4281 194.025 35.266Z" fill="#003C7C"/>
<path d="M151.808 37.5309C151.128 38.2384 150.396 38.6812 149.358 38.4174C148.575 38.2186 147.887 37.5638 147.824 36.785C147.723 35.5351 148.075 34.4737 149.801 34.3381C151.008 34.2433 152.175 34.9374 151.951 36.5524C151.465 36.5524 150.962 36.5524 150.459 36.5524C149.974 36.5524 149.488 36.5524 148.992 36.5524C148.938 37.1462 149.38 37.387 149.745 37.4769C150.321 37.6188 150.742 37.2338 151.088 36.7842C151.389 36.9074 151.691 37.031 152.014 37.1637C151.952 37.2809 151.893 37.391 151.808 37.5309ZM149.047 35.7919C149.599 35.8432 150.151 35.8944 150.703 35.9456C150.737 35.8698 150.772 35.794 150.806 35.7182C150.593 35.5699 150.399 35.3431 150.162 35.2904C149.726 35.1934 149.293 35.2616 149.047 35.7919Z" fill="#003C7C"/>
<path d="M68.5229 37.2812C68.7506 37.1047 68.9379 36.9469 69.149 36.769C69.3998 36.8918 69.6726 37.0254 69.9387 37.1557C69.6653 38.0631 68.4606 38.689 67.4847 38.4587C66.2379 38.1645 65.5822 37.0949 65.8577 35.8045C66.0408 34.9464 67.1421 34.1851 68.0369 34.3034C69.5194 34.4995 70.11 35.2583 70.0172 36.5387C69.0281 36.5387 68.0338 36.5387 67.0396 36.5387C66.9949 36.5859 66.9503 36.6331 66.9056 36.6802C67.1005 36.9164 67.2666 37.1824 67.4971 37.3817C67.8301 37.6695 68.1664 37.476 68.5229 37.2812ZM68.7761 35.6867C68.5522 35.2716 68.146 35.1761 67.7382 35.2816C67.4482 35.3566 67.205 35.5942 66.9409 35.7593C66.9726 35.8086 67.0043 35.8579 67.0359 35.9072C67.5614 35.9072 68.0871 35.916 68.6119 35.8985C68.6989 35.8956 68.7816 35.7778 68.7761 35.6867Z" fill="#FF5A3A"/>
<path d="M101.808 37.2223C102.695 37.6138 103.095 37.5088 103.612 36.777C103.658 36.7896 103.711 36.797 103.756 36.8185C104.641 37.2352 104.654 37.5027 103.839 38.0325C102.681 38.7848 101.954 38.526 101.089 38.0249C100.404 37.6285 100.171 36.2468 100.549 35.543C100.889 34.9086 101.296 34.4663 102.102 34.3921C103.678 34.2469 104.617 34.8425 104.541 36.5322C103.578 36.5322 102.609 36.5322 101.54 36.5322C101.639 36.8091 101.708 37.0004 101.808 37.2223ZM102.942 35.2911C101.932 35.2101 101.823 35.2593 101.648 35.8857C102.23 35.8857 102.809 35.8857 103.563 35.8857C103.317 35.6466 103.164 35.4987 102.942 35.2911Z" fill="#FF5A3A"/>
<path d="M41.7846 35.9556C41.8098 36.6451 41.8345 37.2768 41.2568 37.7687C40.3876 38.5088 39.283 38.7686 38.246 38.0089C37.0506 37.1332 37.2439 35.4958 38.11 34.805C38.8038 34.2516 40.3664 34.147 41.0097 34.8134C41.3191 35.1339 41.5292 35.5406 41.7846 35.9556ZM40.4368 36.958C40.4697 36.6463 40.5288 36.3346 40.5297 36.0228C40.5311 35.5238 40.1039 35.3348 39.7128 35.3211C39.3894 35.3098 38.9203 35.4501 38.755 35.6786C38.3477 36.2415 38.4001 36.7858 38.8895 37.1913C39.4863 37.6859 39.7474 37.6518 40.4368 36.958Z" fill="#FF593A"/>
<path d="M116.217 34.405C117.288 34.6732 117.98 35.6552 117.85 36.6097C117.766 37.2166 117.455 37.652 116.946 38.0019C116.365 38.4008 115.777 38.5999 115.038 38.3929C114.085 38.126 113.342 37.263 113.423 36.3156C113.508 35.3197 114.075 34.5184 115.203 34.4062C115.522 34.3745 115.848 34.4021 116.217 34.405ZM116.595 36.5713C116.594 36.4106 116.61 36.2478 116.589 36.0894C116.529 35.6364 116.058 35.2482 115.606 35.266C115.114 35.2853 114.597 35.7637 114.551 36.2419C114.499 36.7761 114.97 37.4112 115.496 37.5176C115.919 37.603 116.396 37.2312 116.595 36.5713Z" fill="#FF5A3A"/>
<path d="M90.0094 37.2487C89.4286 38.3099 88.1792 38.7409 87.2045 38.3641C86.0878 37.9324 85.4118 36.5122 85.8564 35.628C86.401 34.5452 87.7734 34.0556 88.985 34.512C89.9623 34.8802 90.4422 36.1211 90.0094 37.2487ZM88.7222 37.1991C89.1176 36.8641 89.0551 36.4123 88.9844 36.0069C88.9076 35.566 88.5137 35.3213 88.0714 35.2809C87.7052 35.2475 87.357 35.3638 87.1621 35.7453C86.9108 36.2373 86.904 36.836 87.2423 37.1733C87.6746 37.6043 88.1574 37.6482 88.7222 37.1991Z" fill="#FF593A"/>
<path d="M181.574 38.4774C179.678 38.0153 179.35 36.6544 179.718 35.6316C179.98 34.9055 180.896 34.2949 181.793 34.325C182.609 34.3524 183.369 34.6286 183.765 35.3668C184.188 36.1551 184.167 36.9835 183.55 37.6734C183.069 38.2112 182.414 38.5338 181.574 38.4774ZM181.394 35.3849C181.289 35.4545 181.172 35.513 181.08 35.5956C180.671 35.9604 180.6 36.5771 180.91 36.9825C181.291 37.4798 181.767 37.6375 182.206 37.4116C182.827 37.0923 183.042 36.5114 182.778 35.8701C182.6 35.4386 182.039 35.2222 181.394 35.3849Z" fill="#003C7C"/>
<path d="M92.0735 36.2665C92.0733 36.8003 92.0348 37.2877 92.0829 37.7673C92.1351 38.2874 91.9158 38.4542 91.4062 38.3833C91.2779 38.3655 91.146 38.3699 90.9775 38.3623C90.9775 37.0516 90.9775 35.7553 90.9775 34.3623C91.3917 34.4214 91.7714 34.4756 92.3106 34.5526C92.7278 34.2567 93.4138 34.2633 94.075 34.4432C94.7659 34.6312 94.8551 35.2593 94.8974 35.8152C94.953 36.5463 94.9283 37.2847 94.8953 38.0183C94.8897 38.1437 94.6892 38.3274 94.5439 38.3656C94.3199 38.4245 94.066 38.3811 93.7768 38.3811C93.7768 37.6269 93.7775 36.9144 93.7765 36.2019C93.7756 35.5389 93.5689 35.2678 93.0627 35.262C92.4179 35.2546 92.1154 35.5465 92.0735 36.2665Z" fill="#FF5A3A"/>
<path d="M99.7923 37.8158C99.885 38.4511 99.4613 38.3662 99.0772 38.3892C98.6374 38.4155 98.5222 38.236 98.5373 37.8519C98.5619 37.226 98.583 36.5954 98.5252 35.9734C98.5024 35.7276 98.3193 35.3672 98.1132 35.2907C97.647 35.1175 97.0637 35.3904 96.9646 35.7602C96.8789 36.0798 96.8582 36.4194 96.8463 36.7514C96.828 37.2686 96.8415 37.7868 96.8415 38.3431C96.5096 38.3431 96.2009 38.3431 95.8555 38.3431C95.8555 37.055 95.8555 35.7579 95.8555 34.4318C96.1666 34.4318 96.4791 34.4318 96.8093 34.4318C96.8281 34.542 96.8477 34.6567 96.8508 34.6748C97.2411 34.5792 97.6171 34.4722 98 34.396C99.0134 34.1942 99.7697 34.7532 99.7903 35.7236C99.8048 36.4038 99.7926 37.0846 99.7923 37.8158Z" fill="#FF5A3A"/>
<path d="M12.043 37.3017C12.0429 36.8014 12.0396 36.354 12.0437 35.9066C12.0471 35.5371 11.8908 35.2876 11.4775 35.2663C11.0356 35.2435 10.5446 35.2566 10.4681 35.7836C10.3717 36.447 10.3759 37.1237 10.3413 37.7948C10.3322 37.9702 10.3399 38.1464 10.3399 38.3517C9.99548 38.3517 9.68607 38.3517 9.34717 38.3517C9.34717 37.0483 9.34717 35.752 9.34717 34.4293C9.67822 34.4293 9.99195 34.4293 10.3157 34.4293C10.3298 34.5337 10.3441 34.6392 10.3475 34.6644C10.7494 34.565 11.156 34.4442 11.5716 34.3661C12.3899 34.2123 13.1212 34.68 13.1636 35.4504C13.2163 36.4092 13.1762 37.3726 13.1762 38.3574C12.7907 38.3574 12.4578 38.3574 12.043 38.3574C12.043 38.0196 12.043 37.6871 12.043 37.3017Z" fill="#FF5B3A"/>
<path d="M118.542 34.6167C118.899 34.2876 119.385 34.3112 119.698 34.6784C120.304 34.3378 120.958 34.2596 121.633 34.4251C122.389 34.6107 122.423 35.2605 122.478 35.81C122.55 36.5379 122.513 37.278 122.48 38.0111C122.474 38.1387 122.276 38.3258 122.13 38.365C121.908 38.4252 121.653 38.3808 121.362 38.3808C121.362 37.6032 121.364 36.8732 121.361 36.1433C121.358 35.4497 121.207 35.2684 120.643 35.262C120.022 35.2549 119.667 35.5733 119.661 36.1657C119.652 36.8794 119.659 37.5933 119.659 38.4254C119.282 38.3628 118.961 38.3094 118.637 38.1611C118.635 37.2973 118.646 36.5282 118.633 35.7596C118.626 35.3782 118.574 34.9976 118.542 34.6167Z" fill="#FF5A3A"/>
<path d="M167.566 38.9119C167.743 38.5355 167.907 38.1974 168.07 37.8604C167.611 36.7512 167.144 35.6242 166.667 34.4711C167.946 34.349 167.7 34.275 168.198 35.2422C168.408 35.6511 168.488 36.1201 168.683 36.7404C168.986 36.1106 169.234 35.6129 169.465 35.1084C169.832 34.309 169.978 34.2433 170.976 34.5097C170.894 34.7063 170.829 34.9045 170.732 35.0884C170.176 36.1539 169.61 37.2145 169.053 38.2799C168.792 38.7796 168.556 39.291 168.285 39.7856C168.232 39.882 168.077 39.9717 167.96 39.9841C167.685 40.0132 167.405 39.9934 166.97 39.9934C167.206 39.5706 167.379 39.2604 167.566 38.9119Z" fill="#003C7C"/>
<path d="M36.3528 38.1675C36.1351 38.6162 35.7284 38.3055 35.4151 38.3502C35.3696 38.3567 35.2152 38.0453 35.2106 37.8785C35.1886 37.0749 35.2007 36.2704 35.2007 35.4277C35.0247 35.3943 34.8526 35.3617 34.6582 35.3248C34.6582 35.0418 34.6582 34.7617 34.6582 34.4456C34.8124 34.4244 34.9721 34.4024 35.2006 34.371C35.2006 34.1412 35.1698 33.8919 35.2079 33.6525C35.2643 33.2967 35.2804 32.8944 35.4724 32.6072C35.8848 31.9902 36.4242 31.9085 37.3386 32.2028C37.3386 32.4786 37.3386 32.7606 37.3386 33.0584C37.0366 33.1378 36.5468 32.7196 36.4585 33.3142C36.4077 33.6561 36.4493 34.0103 36.4493 34.366C37.4011 34.4829 37.4011 34.4829 37.3207 35.3455C37.0141 35.3605 36.7007 35.3758 36.3649 35.4829C36.3458 36.439 36.3493 37.3032 36.3528 38.1675Z" fill="#FF5A3A"/>
<path d="M108.413 38.0077C107.282 38.7707 106.512 38.5945 105.556 37.8654C105.037 37.4692 104.814 36.1656 105.16 35.4305C105.387 34.9502 105.762 34.5723 106.348 34.4827C106.717 34.4262 107.108 34.342 107.465 34.4003C108.544 34.5762 108.539 34.601 108.358 35.6936C108.088 35.5785 107.82 35.4784 107.565 35.3528C107.084 35.1152 106.566 35.2694 106.369 35.6007C106.162 35.9483 106.139 36.5042 106.279 36.8896C106.38 37.1672 106.858 37.373 107.212 37.4942C107.376 37.5504 107.649 37.3349 107.867 37.2311C108.008 37.1639 108.138 37.076 108.419 36.9127C108.419 37.344 108.419 37.6526 108.413 38.0077Z" fill="#FF593A"/>
<path d="M109.569 33.0038C109.844 33.0037 110.067 33.0037 110.331 33.0037C110.331 33.5106 110.331 33.9701 110.331 34.438C110.568 34.4235 110.762 34.4116 110.995 34.3973C110.995 34.7196 110.995 35.0138 110.995 35.3489C110.797 35.3616 110.599 35.3742 110.351 35.3902C110.351 35.8906 110.351 36.3696 110.351 36.8486C110.351 37.3305 110.351 37.8123 110.351 38.3378C109.98 38.3378 109.635 38.3378 109.228 38.3378C109.228 37.3678 109.228 36.3934 109.228 35.3928C108.986 35.3778 108.803 35.3665 108.577 35.3526C108.577 35.0625 108.577 34.769 108.577 34.4351C108.748 34.4186 108.946 34.3994 109.216 34.3732C109.216 34.0284 109.191 33.6743 109.229 33.3264C109.242 33.2108 109.415 33.111 109.569 33.0038Z" fill="#FF5A3A"/>
<path d="M140.887 36.0331C140.879 35.8065 140.87 35.631 140.86 35.4278C140.656 35.3919 140.477 35.3605 140.302 35.3297C140.092 34.606 140.148 34.499 140.888 34.3209C140.888 34.0765 140.906 33.812 140.884 33.5505C140.848 33.1244 141.044 32.995 141.481 32.9954C141.9 32.9957 142.066 33.1222 142.027 33.5226C141.999 33.8037 142.022 34.0893 142.022 34.4033C142.26 34.4033 142.457 34.4033 142.677 34.4033C142.677 34.7141 142.677 34.9941 142.677 35.3024C142.48 35.3415 142.302 35.3769 142.048 35.4272C142.048 36.3808 142.048 37.3521 142.048 38.2818C141.943 38.3389 141.912 38.3703 141.882 38.37C140.789 38.3593 140.895 38.5086 140.888 37.4241C140.885 36.9775 140.887 36.5308 140.887 36.0331Z" fill="#003C7C"/>
<path d="M33.9518 36.6617C33.9515 37.1622 33.9894 37.6142 33.9274 38.0536C33.9093 38.1816 33.6174 38.3347 33.4303 38.3661C33.2033 38.4041 32.8353 38.4914 32.8256 38.0966C32.8037 37.2075 32.8187 36.3176 32.8187 35.3912C32.66 35.3803 32.424 35.3642 32.1926 35.3484C32.0592 34.4728 32.0651 34.4629 32.8165 34.3422C32.8165 34.1197 32.8417 33.887 32.8114 33.661C32.7431 33.1515 32.9375 32.9177 33.4959 33.002C33.6227 33.0211 33.7536 33.0158 33.9235 33.0237C33.9235 33.4653 33.9235 33.8882 33.9235 34.3443C34.1291 34.381 34.3007 34.4116 34.495 34.4463C34.495 34.7313 34.495 35.0116 34.495 35.3288C34.3409 35.3498 34.1813 35.3714 33.9518 35.4026C33.9518 35.7968 33.9518 36.2026 33.9518 36.6617Z" fill="#FF5A3A"/>
<path d="M64.7161 36.6512C64.4463 37.1913 64.1887 37.6933 63.9197 38.1897C63.8529 38.3129 63.7491 38.4181 63.6121 38.5973C62.8713 37.1712 62.1825 35.8452 61.4888 34.5096C62.4399 34.2521 62.6838 34.3662 63.0203 35.1694C63.2169 35.6385 63.4211 36.1047 63.6563 36.6522C63.8595 36.1823 64.0589 35.7676 64.2198 35.34C64.5887 34.359 64.6069 34.3406 65.8163 34.4491C65.4411 35.1916 65.0826 35.9013 64.7161 36.6512Z" fill="#FF5939"/>
<path d="M26.8006 33.1165C26.8006 34.6203 26.8006 36.0709 26.8006 37.5215C26.8005 38.4724 26.7887 38.4813 25.6963 38.3248C25.6963 36.2945 25.6963 34.2594 25.6963 32.1838C26.0331 32.1838 26.3797 32.1838 26.8006 32.1838C26.8006 32.4678 26.8006 32.7655 26.8006 33.1165Z" fill="#FF5A3A"/>
<path d="M136.014 32.3817C136.346 32.2746 136.677 32.1676 137.098 32.0317C137.098 34.2339 137.098 36.264 137.098 38.4559C136.738 38.3409 136.428 38.2422 136.118 38.0507C136.117 36.2439 136.121 34.53 136.115 32.8162C136.115 32.6712 136.049 32.5265 136.014 32.3817Z" fill="#003C7C"/>
<path d="M133.962 33.757C133.963 33.3102 133.981 32.9163 133.959 32.5242C133.939 32.1457 134.181 32.1377 134.468 32.1413C134.744 32.1448 134.99 32.1264 134.988 32.5133C134.976 34.4412 134.983 36.3692 134.983 38.3363C134.792 38.3492 134.63 38.3523 134.469 38.3726C134.067 38.4235 133.952 38.2513 133.956 37.8848C133.973 36.5269 133.963 35.1687 133.962 33.757Z" fill="#003C7C"/>
<path d="M44.5894 34.3298C44.8517 34.4168 45.0766 34.4797 45.3034 34.543C45.2074 34.8329 45.1256 35.0803 45.0399 35.3391C44.9922 35.3481 44.933 35.3778 44.8861 35.3655C43.6903 35.053 43.7102 35.5485 43.6146 36.4108C43.5443 37.0442 43.6008 37.6902 43.6008 38.3555C43.2524 38.3555 42.9564 38.3555 42.6196 38.3555C42.6196 37.067 42.6196 35.7699 42.6196 34.4296C42.9709 34.4576 43.3711 34.219 43.6343 34.5723C43.936 34.4846 44.244 34.3951 44.5894 34.3298Z" fill="#FF5A3A"/>
<path d="M111.487 34.8666C111.496 34.1382 112.042 34.4658 112.365 34.4127C112.724 34.3535 112.736 34.6136 112.735 34.8634C112.732 35.8815 112.714 36.9002 112.743 37.9176C112.757 38.3792 112.496 38.3934 112.14 38.3863C111.79 38.3793 111.462 38.4333 111.478 37.9176C111.508 36.9182 111.487 35.9173 111.487 34.8666Z" fill="#FF5A38"/>
<path d="M88.9224 20.6843C93.4384 20.6433 97.9812 20.6408 102.577 20.6421C102.551 20.6779 102.471 20.7377 102.392 20.7377C97.9109 20.7359 93.43 20.7291 88.9224 20.6843Z" fill="#0000FF"/>
<path d="M112.731 32.7205C112.711 32.9545 112.747 33.1772 112.653 33.325C112.468 33.6143 112.165 33.802 111.815 33.5662C111.495 33.3509 111.194 33.0867 111.49 32.6482C111.689 32.3535 112.193 32.2343 112.52 32.4337C112.608 32.4872 112.66 32.5933 112.731 32.7205Z" fill="#FF5A3A"/>
<path d="M53.052 37.3519C53.3201 37.276 53.6104 37.144 53.7992 37.2248C53.975 37.3 54.1282 37.5982 54.1378 37.8047C54.1512 38.0943 54.0266 38.3826 53.6042 38.384C53.2009 38.3853 52.9743 38.1898 52.9211 37.8356C52.8999 37.6944 52.9903 37.5381 53.052 37.3519Z" fill="#FF5939"/>
<path d="M123.925 38.3617C123.649 38.1175 123.36 37.8806 123.639 37.5396C123.789 37.3574 124.086 37.0899 124.219 37.1328C124.442 37.2051 124.669 37.4686 124.748 37.6972C124.859 38.015 124.656 38.2728 124.304 38.3717C124.201 38.4007 124.08 38.3761 123.925 38.3617Z" fill="#FF5939"/>
<path d="M197.068 37.1948C197.332 37.244 197.698 37.2531 197.745 37.3735C197.841 37.6224 197.837 37.9563 197.734 38.2028C197.686 38.3173 197.23 38.4171 197.104 38.3317C196.916 38.2044 196.798 37.915 196.762 37.6795C196.741 37.5361 196.931 37.3642 197.068 37.1948Z" fill="#003C7C"/>
<path d="M136.011 32.4307C136.049 32.5267 136.115 32.6714 136.115 32.8163C136.121 34.5302 136.117 36.2441 136.109 38.0081C136.069 37.8925 136.011 37.727 136.01 37.5612C136.004 35.8673 136.007 34.1734 136.011 32.4307Z" fill="#003C7C"/>
<path d="M169.618 24.5554C169.657 25.0721 169.711 25.6387 169.716 26.2057C169.721 26.9005 169.686 27.5956 169.648 28.3288C169.621 27.1132 169.615 25.8594 169.618 24.5554Z" fill="#FF7F3F"/>
<path d="M118.534 34.6667C118.574 34.9978 118.626 35.3784 118.633 35.7597C118.647 36.5284 118.635 37.2974 118.626 38.1162C118.587 37.8587 118.532 37.5515 118.528 37.2436C118.516 36.4014 118.525 35.559 118.534 34.6667Z" fill="#FF5A3A"/>
<path d="M36.3925 38.1414C36.3493 37.3034 36.3458 36.4391 36.3462 35.5247C36.3775 36.3547 36.4049 37.2349 36.3925 38.1414Z" fill="#FF7F00"/>
</svg>
