<svg width="40" height="40" viewBox="0 0 40 40" fill="none" xmlns="http://www.w3.org/2000/svg">
<mask id="mask0_34_2141" style="mask-type:alpha" maskUnits="userSpaceOnUse" x="0" y="0" width="40" height="40">
<rect width="40" height="40" fill="#D9D9D9"/>
</mask>
<g mask="url(#mask0_34_2141)">
<path d="M20.0001 36.6668C19.2779 36.6668 18.6251 36.4932 18.0417 36.146C17.4584 35.7988 17.0001 35.3335 16.6667 34.7502C15.7501 34.7502 14.9654 34.4238 14.3126 33.771C13.6598 33.1182 13.3334 32.3335 13.3334 31.4168V25.5002C11.6945 24.4168 10.382 22.9863 9.39591 21.2085C8.4098 19.4307 7.91675 17.5002 7.91675 15.4168C7.91675 12.0557 9.09036 9.20155 11.4376 6.85433C13.7848 4.50711 16.639 3.3335 20.0001 3.3335C23.3612 3.3335 26.2154 4.50711 28.5626 6.85433C30.9098 9.20155 32.0834 12.0557 32.0834 15.4168C32.0834 17.5557 31.5904 19.5002 30.6042 21.2502C29.6181 23.0002 28.3056 24.4168 26.6667 25.5002V31.4168C26.6667 32.3335 26.3404 33.1182 25.6876 33.771C25.0348 34.4238 24.2501 34.7502 23.3334 34.7502C23.0001 35.3335 22.5417 35.7988 21.9584 36.146C21.3751 36.4932 20.7223 36.6668 20.0001 36.6668ZM16.6667 31.4168H23.3334V29.9168H16.6667V31.4168ZM16.6667 28.2502H23.3334V26.6668H16.6667V28.2502ZM16.3334 23.3335H18.7501V18.8335L15.0834 15.1668L16.8334 13.4168L20.0001 16.5835L23.1667 13.4168L24.9167 15.1668L21.2501 18.8335V23.3335H23.6667C25.1667 22.6113 26.389 21.5488 27.3334 20.146C28.2779 18.7432 28.7501 17.1668 28.7501 15.4168C28.7501 12.9724 27.9029 10.9029 26.2084 9.2085C24.514 7.51405 22.4445 6.66683 20.0001 6.66683C17.5556 6.66683 15.4862 7.51405 13.7917 9.2085C12.0973 10.9029 11.2501 12.9724 11.2501 15.4168C11.2501 17.1668 11.7223 18.7432 12.6667 20.146C13.6112 21.5488 14.8334 22.6113 16.3334 23.3335Z" fill="url(#paint0_linear_34_2141)"/>
</g>
<defs>
<linearGradient id="paint0_linear_34_2141" x1="32.0834" y1="20.0002" x2="7.91675" y2="20.0002" gradientUnits="userSpaceOnUse">
<stop stop-color="#85CCFF"/>
<stop offset="1" stop-color="#00B0F0"/>
</linearGradient>
</defs>
</svg>
