<svg width="240" height="64" viewBox="0 0 240 64" fill="none" xmlns="http://www.w3.org/2000/svg">
<path d="M218.392 29.8277C220.403 29.8277 221.148 29.1821 222.092 26.9472L228.175 12.644C227.579 11.7252 226.909 11.4521 225.866 11.4521V11.2037H230.063L236.767 26.9472C237.736 29.2318 238.406 29.8277 239.946 29.8277V30.0761H233.713V29.8277C235.253 29.8277 235.377 29.2318 234.408 26.9472L231.776 20.7392H224.997L222.365 26.9472C221.421 29.1821 221.52 29.8277 223.532 29.8277V30.0761H218.392V29.8277ZM225.121 20.4909H231.652L229.045 14.3326C228.796 13.7614 228.573 13.2896 228.349 12.8923L225.121 20.4909Z" fill="white"/>
<path d="M192.336 11.4521V11.2037H200.829C205.696 11.2037 208.825 13.0661 208.825 15.9715C208.825 18.7775 205.895 20.6151 201.301 20.7392C201.922 21.1117 202.94 21.2359 203.709 21.0124L207.136 26.9472C208.328 29.0331 209.247 29.8277 210.787 29.8277V30.0761H204.355V29.8277C205.895 29.8277 205.795 29.0331 204.579 26.9472L201.003 20.7392H196.459V26.9472C196.459 29.3311 196.856 29.8277 198.395 29.8277V30.0761H192.336V29.8277C193.876 29.8277 194.273 29.3311 194.273 26.9472V14.3326C194.273 11.9487 193.876 11.4521 192.336 11.4521ZM196.459 20.4909H200.829C204.305 20.4909 206.54 18.7278 206.54 15.9715C206.54 13.2151 204.305 11.4521 200.829 11.4521H196.459V20.4909Z" fill="white"/>
<path d="M173.421 10.8064C178.835 10.8064 182.907 15.2265 182.907 20.6399C182.907 26.0532 178.835 30.4733 173.421 30.4733C168.008 30.4733 163.936 26.0532 163.936 20.6399C163.936 15.2265 168.008 10.8064 173.421 10.8064ZM166.22 20.6399C166.22 26.4506 169.225 30.225 173.421 30.225C177.618 30.225 180.623 26.4506 180.623 20.6399C180.623 14.8292 177.618 11.0547 173.421 11.0547C169.225 11.0547 166.22 14.8292 166.22 20.6399Z" fill="white"/>
<path d="M148.435 29.8277C149.974 29.8277 150.371 29.3311 150.371 26.9472V14.3326C150.371 11.9487 149.974 11.4521 148.435 11.4521V11.2037H154.494V11.4521C152.954 11.4521 152.557 11.9487 152.557 14.3326V26.9472C152.557 29.3311 152.954 29.8277 154.494 29.8277V30.0761H148.435V29.8277Z" fill="white"/>
<path d="M127.51 29.8277C129.049 29.8277 129.447 29.3311 129.447 26.9472V11.4521H128.925C125.722 11.4521 123.338 11.7997 123.338 14.8044H123.09C123.09 13.091 122.444 11.6259 121.947 11.2037H139.131C138.634 11.6259 137.989 13.091 137.989 14.8044H137.74C137.74 11.7997 135.357 11.4521 132.153 11.4521H131.632V26.9472C131.632 29.3311 132.029 29.8277 133.569 29.8277V30.0761H127.51V29.8277Z" fill="white"/>
<path d="M101.139 11.4521V11.2037H107.198V11.4521C105.658 11.4521 105.261 11.9487 105.261 14.3326V29.8277H109.755C112.959 29.8277 115.343 29.4801 115.343 26.4754H115.591C115.591 28.1888 116.237 29.6539 116.733 30.0761H101.139V29.8277C102.678 29.8277 103.076 29.3311 103.076 26.9472V14.3326C103.076 11.9487 102.678 11.4521 101.139 11.4521Z" fill="white"/>
<path d="M70.647 29.8277C72.6584 29.8277 73.4033 29.1821 74.3469 26.9472L80.4308 12.644C79.8348 11.7252 79.1643 11.4521 78.1214 11.4521V11.2037H82.318L89.0226 26.9472C89.9911 29.2318 90.6616 29.8277 92.2011 29.8277V30.0761H85.9683V29.8277C87.5079 29.8277 87.632 29.2318 86.6636 26.9472L84.0314 20.7392H77.2523L74.6201 26.9472C73.6765 29.1821 73.7758 29.8277 75.7872 29.8277V30.0761H70.647V29.8277ZM77.3764 20.4909H83.9073L81.2999 14.3326C81.0516 13.7614 80.8281 13.2896 80.6046 12.8923L77.3764 20.4909Z" fill="white"/>
<path d="M198.569 42.3831C196.703 42.3831 195.556 43.0743 195.556 44.1249C195.556 47.3736 202.965 46.945 202.965 50.166C202.965 51.6314 201.569 53.1935 198.555 53.1935C196.399 53.1935 194.712 52.3779 193.869 51.8664C194.146 51.6314 194.505 50.8158 194.505 49.8619H194.643C194.643 51.5346 196.288 53.0552 198.555 53.0552C200.74 53.0552 202.053 52.0737 202.053 50.8987C202.053 47.8574 194.643 48.5486 194.643 44.8576C194.643 43.3646 195.818 42.2449 198.569 42.2449C200.339 42.2449 201.749 42.784 202.592 43.2955C202.316 43.5305 201.956 44.3461 201.956 45.3H201.818C201.818 43.6273 200.629 42.3831 198.569 42.3831Z" fill="white"/>
<path d="M177.018 52.8342C178.138 52.8342 178.373 52.5577 178.373 51.2306V44.208C178.373 42.8809 178.138 42.6044 177.018 42.6044V42.4662H179.313L183.184 50.3459L186.736 42.4662H189.031V42.6044C188.174 42.6044 187.953 42.8809 187.953 44.208V51.2306C187.953 52.5577 188.174 52.8342 189.031 52.8342V52.9724H185.658V52.8342C186.515 52.8342 186.736 52.5577 186.736 51.2306V42.8256L182.7 51.7421H182.548L178.511 43.6274V51.2306C178.511 52.5577 178.746 52.8342 179.866 52.8342V52.9724H177.018V52.8342Z" fill="white"/>
<path d="M163.71 52.8342C164.568 52.8342 164.789 52.5577 164.789 51.2306V44.208C164.789 42.8809 164.568 42.6044 163.71 42.6044V42.4662H172.392C172.115 42.7012 171.756 43.5168 171.756 44.4707H171.618C171.618 42.798 170.291 42.6044 168.507 42.6044H166.005V47.6364H167.512C168.839 47.6364 169.116 46.8622 169.116 45.7287H169.254V49.6823H169.116C169.116 48.5487 168.839 47.7746 167.512 47.7746H166.005V52.8342H168.507C170.291 52.8342 171.618 52.6406 171.618 50.9679H171.756C171.756 51.9218 172.115 52.7374 172.392 52.9724H163.71V52.8342Z" fill="white"/>
<path d="M152.338 52.8342C153.195 52.8342 153.417 52.5577 153.417 51.2306V42.6044H153.126C151.343 42.6044 150.016 42.798 150.016 44.4707H149.878C149.878 43.5168 149.518 42.7012 149.242 42.4662H158.808C158.531 42.7012 158.172 43.5168 158.172 44.4707H158.034C158.034 42.798 156.707 42.6044 154.923 42.6044H154.633V51.2306C154.633 52.5577 154.854 52.8342 155.711 52.8342V52.9724H152.338V52.8342Z" fill="white"/>
<path d="M140.346 42.3831C138.479 42.3831 137.332 43.0743 137.332 44.1249C137.332 47.3736 144.742 46.945 144.742 50.166C144.742 51.6314 143.345 53.1935 140.332 53.1935C138.175 53.1935 136.489 52.3779 135.646 51.8664C135.922 51.6314 136.281 50.8158 136.281 49.8619H136.42C136.42 51.5346 138.065 53.0552 140.332 53.0552C142.516 53.0552 143.829 52.0737 143.829 50.8987C143.829 47.8574 136.42 48.5486 136.42 44.8576C136.42 43.3646 137.595 42.2449 140.346 42.2449C142.115 42.2449 143.525 42.784 144.368 43.2955C144.092 43.5305 143.733 44.3461 143.733 45.3H143.594C143.594 43.6273 142.405 42.3831 140.346 42.3831Z" fill="white"/>
<path d="M124.725 52.8342C125.582 52.8342 125.803 52.5577 125.803 51.2306V47.9128L123.232 44.208C122.444 43.0744 121.877 42.6044 121.02 42.6044V42.4662H124.642V42.6044C123.785 42.6044 123.909 43.0744 124.697 44.208L126.992 47.4981L129.273 44.208C130.089 43.0468 130.158 42.6044 129.038 42.6044V42.4662H131.913V42.6044C130.794 42.6044 130.254 43.0468 129.439 44.208L127.02 47.6917V51.2306C127.02 52.5577 127.241 52.8342 128.098 52.8342V52.9724H124.725V52.8342Z" fill="white"/>
<path d="M112.328 42.3831C110.461 42.3831 109.314 43.0743 109.314 44.1249C109.314 47.3736 116.724 46.945 116.724 50.166C116.724 51.6314 115.327 53.1935 112.314 53.1935C110.157 53.1935 108.471 52.3779 107.627 51.8664C107.904 51.6314 108.263 50.8158 108.263 49.8619H108.402C108.402 51.5346 110.047 53.0552 112.314 53.0552C114.498 53.0552 115.811 52.0737 115.811 50.8987C115.811 47.8574 108.402 48.5486 108.402 44.8576C108.402 43.3646 109.577 42.2449 112.328 42.2449C114.097 42.2449 115.507 42.784 116.35 43.2955C116.074 43.5305 115.714 44.3461 115.714 45.3H115.576C115.576 43.6273 114.387 42.3831 112.328 42.3831Z" fill="white"/>
<path d="M35.2058 58.9997C37.0879 58.2539 38.6959 57.1713 39.9748 55.6601C41.0208 54.4242 41.6535 52.9742 41.9186 51.3646C42.1837 49.7553 41.9972 48.2179 41.3425 46.7204C40.5659 44.9443 39.3392 43.5643 37.6813 42.6003C35.6657 41.4284 33.4081 40.9522 31.1522 40.4954C29.1404 40.0879 27.0906 39.8334 25.2222 38.8817C23.3537 37.9299 21.7659 36.6678 20.5704 34.9095C20.2698 35.5257 19.9543 36.1608 19.6493 36.8009C19.3437 37.4422 19.0762 38.1031 18.7441 38.7301C17.1487 41.7424 15.5451 44.7503 13.9274 47.7507C13.2815 48.9485 12.6039 50.1243 11.5482 51.0371C10.4287 52.0051 9.14355 52.529 7.67741 52.6388C5.82507 52.7776 4.16567 52.2213 2.71424 51.1188C1.31946 50.0593 0.455667 48.6606 0.145244 46.884C-0.18094 45.0173 0.42862 43.3434 1.03489 41.6771C1.85453 39.4243 2.95413 37.3008 4.31965 35.3182C5.7516 33.239 7.4554 31.4186 9.33948 29.7431C11.7382 27.6099 14.4822 26.0392 17.3558 24.6735C18.2442 24.2513 19.1999 23.9725 20.1038 23.5797C20.3597 23.4686 20.6376 23.227 20.7423 22.977C21.691 20.7094 22.6245 18.4348 23.5214 16.1462C24.6431 13.2836 25.7415 10.4116 26.82 7.53242C27.4858 5.75486 28.0916 3.9549 28.7323 2.16786C29.0181 1.37077 29.2977 0.590202 30.1943 0.214515C31.4743 -0.32176 32.7674 0.185415 33.2356 1.31313C33.8065 2.6883 34.3218 4.08662 34.8573 5.4764C35.6686 7.58182 36.4768 9.68841 37.2858 11.7947C38.1342 14.0034 38.9835 16.2117 39.8295 18.4213C40.2425 19.5001 40.6817 20.5706 41.0435 21.6665C41.2127 22.1793 41.6246 22.1381 41.9679 22.2117C45.3248 22.9313 48.4637 24.1875 51.3927 25.9747C51.5046 26.043 51.6649 26.0682 51.7332 26.1634C51.8387 26.3105 51.8842 26.5007 51.9552 26.6726C51.7983 26.6934 51.6253 26.7681 51.4868 26.7269C49.5391 26.1483 47.6063 25.5167 45.6479 24.9776C44.518 24.6666 43.3486 24.4986 42.0646 24.2395C42.4295 25.1776 42.7428 25.9854 43.0579 26.7926C44.1414 29.5685 45.2176 32.3473 46.3118 35.119C47.2012 37.3721 48.0802 39.6302 49.0215 41.8617C50.3693 45.0568 51.6755 48.2752 53.184 51.3943C54.0492 53.1834 55.2467 54.8179 56.3598 56.4784C56.864 57.2304 57.5266 57.8762 58.0008 58.4334C59.7151 57.9143 61.2694 57.3104 62.8801 56.9903C64.8031 56.6081 66.7844 56.5453 68.5121 57.7383C70.039 58.7926 70.3489 60.5636 69.4499 61.7908C68.693 62.8241 67.594 63.4385 66.3456 63.7374C63.4633 64.4274 60.8271 63.6948 58.3326 62.2752C57.7324 61.9335 57.1925 61.4815 56.6427 61.0573C56.3555 60.8357 56.133 60.8607 55.8513 61.0717C54.8755 61.8022 53.8864 62.5149 52.8951 63.2244C52.7541 63.3253 52.5733 63.3707 52.411 63.4417C52.3652 63.403 52.3194 63.3642 52.2737 63.3255C52.3715 63.1322 52.4266 62.8941 52.5743 62.7529C53.4943 61.8734 54.4351 61.0156 55.4067 60.1157C54.9478 59.6038 54.38 59.0592 53.9173 58.4365C52.8432 56.9911 51.75 55.5517 50.7961 54.0276C49.8947 52.5873 49.1015 51.0705 48.367 49.5365C47.1249 46.9418 45.9559 44.3118 44.7763 41.6876C43.8127 39.5439 42.8594 37.3953 41.9367 35.2338C40.9429 32.9057 39.9921 30.5593 39.0188 28.2225C38.417 26.7776 37.8083 25.3355 37.1818 23.8423C35.7392 23.8423 34.2245 23.7216 32.7368 23.8705C30.4695 24.0974 28.3583 24.9013 26.5662 26.3322C25.7113 27.0147 24.9429 27.8479 24.285 28.7251C23.2185 30.1469 23.5103 32.1189 24.7011 33.4255C26.2701 35.1471 28.2787 35.8732 30.4719 36.3491C32.403 36.7681 34.3216 37.269 36.2118 37.8449C38.611 38.576 40.7252 39.8443 42.3876 41.7404C44.0374 43.6221 45.0884 45.796 45.3971 48.3271C45.7868 51.5234 44.9158 54.3535 43.1 56.9401C42.1425 58.3041 40.8733 59.3445 39.5028 60.269C39.3661 60.3612 39.2281 60.4514 38.9349 60.6458C39.4705 60.5855 39.8448 60.5644 40.2104 60.4965C40.5948 60.4251 40.9708 60.3082 41.3508 60.2124C43.5538 59.6567 45.6531 58.8295 47.6763 57.8017C48.2665 57.5019 48.5795 57.5524 48.8095 57.9712C49.0193 58.353 48.8024 58.7647 48.2722 59.0629C45.9998 60.341 43.5959 61.3041 41.0758 61.9467C40.0058 62.2195 38.8904 62.3313 37.7889 62.4583C36.9942 62.55 36.1684 62.6751 35.3922 62.5549C34.1239 62.3586 33.002 62.9717 31.7966 63.0102C30.1983 63.0612 28.5973 63.0709 26.9983 63.0444C25.3108 63.0164 23.701 62.5721 22.1193 62.0104C19.5318 61.0915 17.3412 59.608 15.6623 57.4243C14.8525 56.371 14.3897 55.1183 14.4176 53.8132C14.47 51.362 16.3281 49.2122 18.984 49.4113C19.9732 49.4855 20.8386 49.9301 21.6198 50.5518C23.2312 51.8343 24.1778 53.6416 25.3671 55.2558C26.9671 57.4274 29.0263 58.9921 31.5234 59.9811C31.7361 60.0654 32.0414 59.9867 32.283 59.9145C33.2466 59.6265 34.202 59.311 35.2058 58.9997ZM4.43606 47.364C4.89165 47.6937 5.31174 48.0967 5.81017 48.3378C6.86546 48.8482 8.39258 48.6847 9.07186 47.5825C9.97304 46.1202 10.8592 44.6382 11.6097 43.0955C13.7035 38.7913 15.7311 34.4548 17.7676 30.1229C18.1907 29.2227 18.5394 28.2876 18.9224 27.3685C17.6742 27.9535 16.5001 28.5772 15.3799 29.2861C13.6674 30.37 12.0469 31.5746 10.707 33.1239C10.0618 33.8699 9.29514 34.5156 8.68823 35.2889C6.67204 37.8578 5.20831 40.7231 4.26382 43.8526C3.91173 45.0192 3.64 46.1761 4.43606 47.364ZM33.8137 15.3651C33.3911 14.3097 32.9679 13.2546 32.5462 12.1989C32.1149 11.1193 31.6852 10.0392 31.2556 8.9613C29.6 13.2782 27.9597 17.5555 26.3553 21.7392C29.6086 21.5432 32.8592 21.3475 36.1136 21.1514C35.3628 19.2877 34.5911 17.3724 33.8137 15.3651ZM25.8224 60.1509C26.4588 60.1953 27.0952 60.2398 27.8831 60.2948C26.1325 59.1991 24.7796 57.9417 23.6458 56.4513C22.595 55.0701 21.6707 53.5902 20.362 52.4157C19.6697 51.7944 18.6411 51.531 17.9828 51.879C16.6935 52.5606 16.6579 53.9885 17.2586 55.1928C18.0283 56.7361 19.3939 57.7084 20.8546 58.5285C22.3678 59.3782 24.0158 59.85 25.8224 60.1509ZM65.9115 61.3213C66.3891 61.1264 66.8724 60.9444 67.3426 60.7332C67.8738 60.4946 67.8233 60.0891 67.5821 59.6758C67.2501 59.107 66.6642 58.9151 66.0794 58.7749C65.1016 58.5405 64.1118 58.4586 63.1086 58.6491C61.8322 58.8914 60.5514 59.1104 59.2724 59.3395C59.2805 59.4018 59.2886 59.464 59.2967 59.5262C61.2653 60.8814 63.3669 61.7751 65.9115 61.3213Z" fill="#85CCFF"/>
</svg>
