<svg width="40" height="40" viewBox="0 0 40 40" fill="none" xmlns="http://www.w3.org/2000/svg">
<mask id="mask0_34_2138" style="mask-type:alpha" maskUnits="userSpaceOnUse" x="0" y="0" width="40" height="40">
<rect width="40" height="40" fill="#D9D9D9"/>
</mask>
<g mask="url(#mask0_34_2138)">
<path d="M19.7916 33.3335C19.9027 33.3335 20.0138 33.3057 20.1249 33.2502C20.236 33.1946 20.3193 33.1391 20.3749 33.0835L34.0416 19.4168C34.3749 19.0835 34.618 18.7085 34.7707 18.2918C34.9235 17.8752 34.9999 17.4585 34.9999 17.0418C34.9999 16.5974 34.9235 16.1738 34.7707 15.771C34.618 15.3682 34.3749 15.0141 34.0416 14.7085L26.9582 7.62516C26.6527 7.29183 26.2985 7.04877 25.8957 6.896C25.493 6.74322 25.0693 6.66683 24.6249 6.66683C24.2082 6.66683 23.7916 6.74322 23.3749 6.896C22.9582 7.04877 22.5832 7.29183 22.2499 7.62516L21.7916 8.0835L24.8749 11.2085C25.2916 11.5974 25.5971 12.0418 25.7916 12.5418C25.986 13.0418 26.0832 13.5696 26.0832 14.1252C26.0832 15.2918 25.6874 16.271 24.8957 17.0627C24.1041 17.8543 23.1249 18.2502 21.9582 18.2502C21.4027 18.2502 20.868 18.1529 20.3541 17.9585C19.8402 17.7641 19.3888 17.4724 18.9999 17.0835L15.8749 14.0002L8.58324 21.2918C8.4999 21.3752 8.4374 21.4654 8.39574 21.5627C8.35407 21.6599 8.33324 21.7641 8.33324 21.8752C8.33324 22.0974 8.41657 22.2988 8.58324 22.4793C8.7499 22.6599 8.94435 22.7502 9.16657 22.7502C9.27768 22.7502 9.38879 22.7224 9.4999 22.6668C9.61101 22.6113 9.69435 22.5557 9.7499 22.5002L15.4166 16.8335L17.7499 19.1668L12.1249 24.8335C12.0416 24.9168 11.9791 25.0071 11.9374 25.1043C11.8957 25.2016 11.8749 25.3057 11.8749 25.4168C11.8749 25.6391 11.9582 25.8335 12.1249 26.0002C12.2916 26.1668 12.486 26.2502 12.7082 26.2502C12.8193 26.2502 12.9305 26.2224 13.0416 26.1668C13.1527 26.1113 13.236 26.0557 13.2916 26.0002L18.9582 20.3752L21.2916 22.7085L15.6666 28.3752C15.5832 28.4307 15.5207 28.5141 15.4791 28.6252C15.4374 28.7363 15.4166 28.8474 15.4166 28.9585C15.4166 29.1807 15.4999 29.3752 15.6666 29.5418C15.8332 29.7085 16.0277 29.7918 16.2499 29.7918C16.361 29.7918 16.4652 29.771 16.5624 29.7293C16.6596 29.6877 16.7499 29.6252 16.8332 29.5418L22.4999 23.9168L24.8332 26.2502L19.1666 31.9168C19.0832 32.0002 19.0207 32.0904 18.9791 32.1877C18.9374 32.2849 18.9166 32.3891 18.9166 32.5002C18.9166 32.7224 19.0068 32.9168 19.1874 33.0835C19.368 33.2502 19.5693 33.3335 19.7916 33.3335ZM19.7499 36.6668C18.7221 36.6668 17.8124 36.3266 17.0207 35.646C16.2291 34.9654 15.7638 34.1113 15.6249 33.0835C14.6805 32.9446 13.8888 32.5557 13.2499 31.9168C12.611 31.2779 12.2221 30.4863 12.0832 29.5418C11.1388 29.4029 10.3541 29.0071 9.72907 28.3543C9.10407 27.7016 8.72212 26.9168 8.58324 26.0002C7.52768 25.8613 6.66657 25.4029 5.9999 24.6252C5.33324 23.8474 4.9999 22.9307 4.9999 21.8752C4.9999 21.3196 5.10407 20.7849 5.3124 20.271C5.52074 19.7571 5.81935 19.3057 6.20824 18.9168L15.8749 9.29183L21.3332 14.7502C21.3888 14.8335 21.4721 14.896 21.5832 14.9377C21.6943 14.9793 21.8055 15.0002 21.9166 15.0002C22.1666 15.0002 22.3749 14.9238 22.5416 14.771C22.7082 14.6182 22.7916 14.4168 22.7916 14.1668C22.7916 14.0557 22.7707 13.9446 22.7291 13.8335C22.6874 13.7224 22.6249 13.6391 22.5416 13.5835L16.5832 7.62516C16.2777 7.29183 15.9235 7.04877 15.5207 6.896C15.118 6.74322 14.6943 6.66683 14.2499 6.66683C13.8332 6.66683 13.4166 6.74322 12.9999 6.896C12.5832 7.04877 12.2082 7.29183 11.8749 7.62516L5.9999 13.5418C5.7499 13.7918 5.54157 14.0835 5.3749 14.4168C5.20824 14.7502 5.09712 15.0835 5.04157 15.4168C4.98601 15.7502 4.98601 16.0904 5.04157 16.4377C5.09712 16.7849 5.20824 17.1113 5.3749 17.4168L2.95824 19.8335C2.48601 19.1946 2.13879 18.4932 1.91657 17.7293C1.69435 16.9654 1.61101 16.1946 1.66657 15.4168C1.72212 14.6391 1.91657 13.8821 2.2499 13.146C2.58324 12.4099 3.04157 11.7502 3.6249 11.1668L9.4999 5.29183C10.1666 4.65294 10.9096 4.16683 11.7291 3.8335C12.5485 3.50016 13.3888 3.3335 14.2499 3.3335C15.111 3.3335 15.9513 3.50016 16.7707 3.8335C17.5902 4.16683 18.3193 4.65294 18.9582 5.29183L19.4166 5.75016L19.8749 5.29183C20.5416 4.65294 21.2846 4.16683 22.1041 3.8335C22.9235 3.50016 23.7638 3.3335 24.6249 3.3335C25.486 3.3335 26.3263 3.50016 27.1457 3.8335C27.9652 4.16683 28.6943 4.65294 29.3332 5.29183L36.3749 12.3335C37.0138 12.9724 37.4999 13.7085 37.8332 14.5418C38.1666 15.3752 38.3332 16.2224 38.3332 17.0835C38.3332 17.9446 38.1666 18.7849 37.8332 19.6043C37.4999 20.4238 37.0138 21.1529 36.3749 21.7918L22.7082 35.4168C22.3193 35.8057 21.868 36.1113 21.3541 36.3335C20.8402 36.5557 20.3055 36.6668 19.7499 36.6668Z" fill="url(#paint0_linear_34_2138)"/>
</g>
<defs>
<linearGradient id="paint0_linear_34_2138" x1="38.3332" y1="20.0002" x2="1.6499" y2="20.0002" gradientUnits="userSpaceOnUse">
<stop stop-color="#85CCFF"/>
<stop offset="1" stop-color="#00B0F0"/>
</linearGradient>
</defs>
</svg>
