<svg width="22" height="22" viewBox="0 0 22 22" fill="none" xmlns="http://www.w3.org/2000/svg">
<g clip-path="url(#clip0_34_1601)">
<g clip-path="url(#clip1_34_1601)">
<path d="M17.3372 17.3373H14.6696V13.1601C14.6696 12.1641 14.6516 10.8825 13.2824 10.8825C11.894 10.8825 11.6816 11.9673 11.6816 13.0881V17.3373H9.014V8.74772H11.5748V9.92132H11.6108C11.8664 9.48332 12.2372 9.12332 12.6812 8.87852C13.1264 8.63492 13.6292 8.51492 14.1368 8.53412C16.8392 8.53412 17.3384 10.3125 17.3384 12.6249L17.3372 17.3373ZM6.0044 7.57412C5.6984 7.57412 5.3996 7.48292 5.1452 7.31252C4.8908 7.14332 4.6916 6.90092 4.5752 6.61892C4.4576 6.33572 4.4264 6.02492 4.4864 5.72372C4.5464 5.42372 4.694 5.14772 4.91 4.93172C5.126 4.71572 5.402 4.56812 5.702 4.50812C6.002 4.44812 6.314 4.47932 6.596 4.59572C6.8792 4.71332 7.1216 4.91132 7.2908 5.16572C7.4612 5.42012 7.5524 5.72012 7.5524 6.02612C7.5524 6.22892 7.5116 6.43052 7.4348 6.61772C7.3568 6.80612 7.2428 6.97652 7.0988 7.12052C6.9548 7.26332 6.7844 7.37852 6.5972 7.45532C6.4088 7.53332 6.2084 7.57412 6.0044 7.57412ZM7.3388 17.3373H4.6688V8.74772H7.3388V17.3373ZM18.6668 2.00132H3.3284C2.9804 1.99772 2.6444 2.13212 2.396 2.37572C2.1464 2.61812 2.0048 2.95052 2 3.29852V18.7017C2.0036 19.0497 2.1464 19.3821 2.3948 19.6257C2.6444 19.8693 2.9804 20.0037 3.3284 20.0001H18.6668C19.016 20.0049 19.352 19.8705 19.6016 19.6269C19.8524 19.3833 19.9952 19.0497 20 18.7017V3.29732C19.9952 2.94932 19.8524 2.61572 19.6016 2.37332C19.352 2.12972 19.0148 1.99532 18.6668 2.00012" fill="white"/>
</g>
</g>
<defs>
<clipPath id="clip0_34_1601">
<rect width="18" height="18" fill="white" transform="translate(2 2)"/>
</clipPath>
<clipPath id="clip1_34_1601">
<rect width="18" height="18" fill="white" transform="translate(2 2)"/>
</clipPath>
</defs>
</svg>
