<svg width="24" height="24" viewBox="0 0 24 24" fill="none" xmlns="http://www.w3.org/2000/svg">
<mask id="mask0_34_2622" style="mask-type:alpha" maskUnits="userSpaceOnUse" x="0" y="0" width="24" height="24">
<rect width="24" height="24" fill="#D9D9D9"/>
</mask>
<g mask="url(#mask0_34_2622)">
<path d="M4.00049 20C3.45049 20 2.97965 19.8042 2.58799 19.4125C2.19632 19.0208 2.00049 18.55 2.00049 18V6C2.00049 5.45 2.19632 4.97917 2.58799 4.5875C2.97965 4.19583 3.45049 4 4.00049 4H20.0005C20.5505 4 21.0213 4.19583 21.413 4.5875C21.8047 4.97917 22.0005 5.45 22.0005 6V18C22.0005 18.55 21.8047 19.0208 21.413 19.4125C21.0213 19.8042 20.5505 20 20.0005 20H4.00049ZM12.0005 13L4.00049 8V18H20.0005V8L12.0005 13ZM12.0005 11L20.0005 6H4.00049L12.0005 11ZM4.00049 8V6V18V8Z" fill="#85CCFF"/>
</g>
</svg>
