<svg width="150" height="40" viewBox="0 0 150 40" fill="none" xmlns="http://www.w3.org/2000/svg">
<path d="M136.461 18.6423C137.718 18.6423 138.184 18.2388 138.773 16.842L142.576 7.90248C142.203 7.32824 141.784 7.15752 141.132 7.15752V7.00232H143.755L147.946 16.842C148.551 18.2698 148.97 18.6423 149.932 18.6423V18.7975H146.037V18.6423C146.999 18.6423 147.077 18.2698 146.471 16.842L144.826 12.962H140.589L138.944 16.842C138.354 18.2388 138.416 18.6423 139.674 18.6423V18.7975H136.461V18.6423ZM140.667 12.8068H144.749L143.119 8.95784C142.964 8.60088 142.824 8.306 142.684 8.05768L140.667 12.8068Z" fill="#2E394D"/>
<path d="M120.176 7.15752V7.00232H125.484C128.526 7.00232 130.482 8.16632 130.482 9.98216C130.482 11.7359 128.65 12.8844 125.779 12.962C126.167 13.1948 126.803 13.2724 127.284 13.1327L129.426 16.842C130.171 18.1457 130.745 18.6423 131.708 18.6423V18.7975H127.688V18.6423C128.65 18.6423 128.588 18.1457 127.828 16.842L125.593 12.962H122.753V16.842C122.753 18.3319 123.001 18.6423 123.963 18.6423V18.7975H120.176V18.6423C121.139 18.6423 121.387 18.3319 121.387 16.842V8.95784C121.387 7.46792 121.139 7.15752 120.176 7.15752ZM122.753 12.8068H125.484C127.657 12.8068 129.054 11.7049 129.054 9.98216C129.054 8.25944 127.657 7.15752 125.484 7.15752H122.753V12.8068Z" fill="#2E394D"/>
<path d="M108.354 6.75403C111.738 6.75403 114.283 9.51659 114.283 12.8999C114.283 16.2833 111.738 19.0459 108.354 19.0459C104.971 19.0459 102.426 16.2833 102.426 12.8999C102.426 9.51659 104.971 6.75403 108.354 6.75403ZM103.854 12.8999C103.854 16.5316 105.732 18.8907 108.354 18.8907C110.977 18.8907 112.855 16.5316 112.855 12.8999C112.855 9.26827 110.977 6.90923 108.354 6.90923C105.732 6.90923 103.854 9.26827 103.854 12.8999Z" fill="#2E394D"/>
<path d="M92.7378 18.6423C93.7 18.6423 93.9484 18.3319 93.9484 16.842V8.95784C93.9484 7.46792 93.7 7.15752 92.7378 7.15752V7.00232H96.5247V7.15752C95.5624 7.15752 95.3141 7.46792 95.3141 8.95784V16.842C95.3141 18.3319 95.5624 18.6423 96.5247 18.6423V18.7975H92.7378V18.6423Z" fill="#2E394D"/>
<path d="M79.6596 18.6423C80.6218 18.6423 80.8701 18.3319 80.8701 16.842V7.15752H80.5442C78.5421 7.15752 77.0522 7.3748 77.0522 9.25272H76.897C76.897 8.18184 76.4935 7.26616 76.1831 7.00232H86.9229C86.6125 7.26616 86.209 8.18184 86.209 9.25272H86.0538C86.0538 7.3748 84.5639 7.15752 82.5618 7.15752H82.2359V16.842C82.2359 18.3319 82.4842 18.6423 83.4465 18.6423V18.7975H79.6596V18.6423Z" fill="#2E394D"/>
<path d="M63.1777 7.15752V7.00232H66.9646V7.15752C66.0024 7.15752 65.7541 7.46792 65.7541 8.95784V18.6423H68.5632C70.5653 18.6423 72.0552 18.425 72.0552 16.5471H72.2104C72.2104 17.618 72.6139 18.5337 72.9243 18.7975H63.1777V18.6423C64.14 18.6423 64.3883 18.3319 64.3883 16.842V8.95784C64.3883 7.46792 64.14 7.15752 63.1777 7.15752Z" fill="#2E394D"/>
<path d="M44.1206 18.6423C45.3777 18.6423 45.8433 18.2388 46.4331 16.842L50.2355 7.90248C49.863 7.32824 49.444 7.15752 48.7921 7.15752V7.00232H51.415L55.6054 16.842C56.2107 18.2698 56.6297 18.6423 57.592 18.6423V18.7975H53.6964V18.6423C54.6587 18.6423 54.7363 18.2698 54.131 16.842L52.4859 12.962H48.2489L46.6038 16.842C46.014 18.2388 46.0761 18.6423 47.3332 18.6423V18.7975H44.1206V18.6423ZM48.3265 12.8068H52.4083L50.7787 8.95784C50.6235 8.60088 50.4838 8.306 50.3441 8.05768L48.3265 12.8068Z" fill="#2E394D"/>
<path d="M124.072 26.4895C122.905 26.4895 122.188 26.9215 122.188 27.5781C122.188 29.6085 126.819 29.3407 126.819 31.3538C126.819 32.2696 125.947 33.246 124.063 33.246C122.715 33.246 121.661 32.7362 121.134 32.4165C121.307 32.2696 121.532 31.7599 121.532 31.1637H121.618C121.618 32.2092 122.646 33.1596 124.063 33.1596C125.428 33.1596 126.249 32.5461 126.249 31.8117C126.249 29.9109 121.618 30.3429 121.618 28.036C121.618 27.1029 122.353 26.4031 124.072 26.4031C125.178 26.4031 126.059 26.74 126.586 27.0597C126.413 27.2066 126.189 27.7164 126.189 28.3125H126.102C126.102 27.2671 125.359 26.4895 124.072 26.4895Z" fill="#2E394D"/>
<path d="M110.603 33.0214C111.302 33.0214 111.449 32.8486 111.449 32.0191V27.63C111.449 26.8006 111.302 26.6278 110.603 26.6278V26.5414H112.037L114.456 31.4662L116.676 26.5414H118.111V26.6278C117.575 26.6278 117.437 26.8006 117.437 27.63V32.0191C117.437 32.8486 117.575 33.0214 118.111 33.0214V33.1078H116.003V33.0214C116.538 33.0214 116.676 32.8486 116.676 32.0191V26.766L114.154 32.3388H114.059L111.536 27.2671V32.0191C111.536 32.8486 111.683 33.0214 112.382 33.0214V33.1078H110.603V33.0214Z" fill="#2E394D"/>
<path d="M102.285 33.0214C102.821 33.0214 102.959 32.8486 102.959 32.0191V27.63C102.959 26.8006 102.821 26.6278 102.285 26.6278V26.5414H107.711C107.538 26.6883 107.314 27.198 107.314 27.7942H107.227C107.227 26.7487 106.398 26.6278 105.283 26.6278H103.719V29.7727H104.661C105.491 29.7727 105.663 29.2889 105.663 28.5804H105.75V31.0515H105.663C105.663 30.343 105.491 29.8591 104.661 29.8591H103.719V33.0214H105.283C106.398 33.0214 107.227 32.9004 107.227 31.855H107.314C107.314 32.4511 107.538 32.9609 107.711 33.1078H102.285V33.0214Z" fill="#2E394D"/>
<path d="M95.1775 33.0214C95.7132 33.0214 95.8515 32.8486 95.8515 32.0191V26.6278H95.67C94.5555 26.6278 93.726 26.7487 93.726 27.7942H93.6396C93.6396 27.198 93.415 26.6883 93.2422 26.5414H99.2211C99.0483 26.6883 98.8236 27.198 98.8236 27.7942H98.7372C98.7372 26.7487 97.9078 26.6278 96.7932 26.6278H96.6118V32.0191C96.6118 32.8486 96.75 33.0214 97.2857 33.0214V33.1078H95.1775V33.0214Z" fill="#2E394D"/>
<path d="M87.6822 26.4895C86.5158 26.4895 85.7987 26.9215 85.7987 27.5781C85.7987 29.6085 90.4297 29.3407 90.4297 31.3538C90.4297 32.2696 89.5571 33.246 87.6736 33.246C86.3257 33.246 85.2717 32.7362 84.7446 32.4165C84.9174 32.2696 85.1421 31.7599 85.1421 31.1637H85.2285C85.2285 32.2092 86.2566 33.1596 87.6736 33.1596C89.0387 33.1596 89.8595 32.5461 89.8595 31.8117C89.8595 29.9109 85.2285 30.3429 85.2285 28.036C85.2285 27.1029 85.9629 26.4031 87.6822 26.4031C88.7881 26.4031 89.6694 26.74 90.1965 27.0597C90.0237 27.2066 89.799 27.7164 89.799 28.3125H89.7126C89.7126 27.2671 88.9696 26.4895 87.6822 26.4895Z" fill="#2E394D"/>
<path d="M77.919 33.0214C78.4547 33.0214 78.593 32.8486 78.593 32.0191V29.9455L76.9859 27.63C76.4934 26.9215 76.1392 26.6278 75.6035 26.6278V26.5414H77.8672V26.6278C77.3315 26.6278 77.4093 26.9215 77.9018 27.63L79.336 29.6863L80.7616 27.63C81.2714 26.9043 81.3146 26.6278 80.6147 26.6278V26.5414H82.4118V26.6278C81.712 26.6278 81.375 26.9043 80.8653 27.63L79.3533 29.8073V32.0191C79.3533 32.8486 79.4915 33.0214 80.0272 33.0214V33.1078H77.919V33.0214Z" fill="#2E394D"/>
<path d="M70.171 26.4895C69.0046 26.4895 68.2875 26.9215 68.2875 27.5781C68.2875 29.6085 72.9185 29.3407 72.9185 31.3538C72.9185 32.2696 72.0459 33.246 70.1624 33.246C68.8145 33.246 67.7604 32.7362 67.2334 32.4165C67.4062 32.2696 67.6308 31.7599 67.6308 31.1637H67.7172C67.7172 32.2092 68.7454 33.1596 70.1624 33.1596C71.5275 33.1596 72.3483 32.5461 72.3483 31.8117C72.3483 29.9109 67.7172 30.3429 67.7172 28.036C67.7172 27.1029 68.4516 26.4031 70.171 26.4031C71.2769 26.4031 72.1582 26.74 72.6852 27.0597C72.5124 27.2066 72.2878 27.7164 72.2878 28.3125H72.2014C72.2014 27.2671 71.4584 26.4895 70.171 26.4895Z" fill="#2E394D"/>
<path d="M21.9698 36.8748C23.1461 36.4087 24.151 35.7321 24.9504 34.7876C25.6041 34.0151 25.9996 33.1089 26.1653 32.1029C26.3309 31.097 26.2144 30.1362 25.8052 29.2003C25.3198 28.0902 24.5532 27.2277 23.5169 26.6252C22.2572 25.8927 20.8462 25.5951 19.4362 25.3096C18.1789 25.055 16.8977 24.8959 15.73 24.301C14.5622 23.7062 13.5698 22.9174 12.8226 21.8184C12.6347 22.2036 12.4376 22.6005 12.2469 23.0006C12.0559 23.4014 11.8887 23.8145 11.6812 24.2063C10.6841 26.089 9.68179 27.969 8.67072 29.8442C8.26708 30.5928 7.84355 31.3277 7.18374 31.8982C6.48409 32.5032 5.68084 32.8306 4.76451 32.8993C3.60679 32.986 2.56967 32.6383 1.66252 31.9493C0.790791 31.2871 0.250917 30.4129 0.0569028 29.3025C-0.146962 28.1358 0.234013 27.0896 0.612929 26.0482C1.1252 24.6402 1.81246 23.313 2.66591 22.0738C3.56088 20.7744 4.62575 19.6366 5.8033 18.5895C7.30252 17.2562 9.01747 16.2745 10.8135 15.4209C11.3687 15.157 11.9661 14.9828 12.531 14.7373C12.691 14.6679 12.8646 14.5169 12.93 14.3606C13.523 12.9434 14.1065 11.5218 14.667 10.0914C15.3681 8.30226 16.0546 6.50726 16.7286 4.70776C17.1447 3.59679 17.5234 2.47181 17.9238 1.35491C18.1024 0.856729 18.2772 0.368876 18.8376 0.134072C19.6375 -0.2011 20.4458 0.115884 20.7384 0.820707C21.0952 1.68019 21.4172 2.55414 21.7519 3.42275C22.259 4.73864 22.7641 6.05525 23.2698 7.37168C23.8 8.75211 24.3308 10.1323 24.8595 11.5133C25.1177 12.1876 25.3922 12.8566 25.6183 13.5416C25.7241 13.862 25.9815 13.8363 26.1961 13.8823C28.2941 14.332 30.2559 15.1172 32.0865 16.2342C32.1565 16.2769 32.2567 16.2926 32.2994 16.3521C32.3653 16.4441 32.3938 16.5629 32.4381 16.6704C32.34 16.6834 32.232 16.7301 32.1454 16.7043C30.9281 16.3427 29.72 15.948 28.4961 15.611C27.7899 15.4166 27.059 15.3116 26.2565 15.1497C26.4845 15.736 26.6804 16.2409 26.8773 16.7454C27.5545 18.4803 28.2271 20.2171 28.911 21.9494C29.4669 23.3576 30.0163 24.7689 30.6046 26.1636C31.447 28.1605 32.2633 30.172 33.2061 32.1215C33.7469 33.2397 34.4953 34.2612 35.191 35.299C35.5061 35.769 35.9202 36.1726 36.2166 36.5209C37.2881 36.1964 38.2595 35.819 39.2662 35.6189C40.468 35.3801 41.7064 35.3408 42.7862 36.0865C43.7405 36.7454 43.9342 37.8522 43.3723 38.6193C42.8993 39.2651 42.2124 39.6491 41.4321 39.8358C39.6307 40.2671 37.9831 39.8093 36.424 38.922C36.0489 38.7085 35.7115 38.4259 35.3678 38.1608C35.1883 38.0223 35.0493 38.038 34.8732 38.1698C34.2633 38.6264 33.6451 39.0718 33.0256 39.5153C32.9374 39.5783 32.8245 39.6067 32.723 39.6511C32.6944 39.6269 32.6658 39.6026 32.6372 39.5784C32.6983 39.4576 32.7327 39.3088 32.825 39.2206C33.4001 38.6709 33.9881 38.1347 34.5953 37.5723C34.3085 37.2524 33.9536 36.912 33.6644 36.5228C32.9931 35.6194 32.3099 34.7198 31.7137 33.7673C31.1503 32.8671 30.6546 31.9191 30.1955 30.9603C29.4192 29.3386 28.6885 27.6949 27.9513 26.0548C27.3491 24.715 26.7532 23.372 26.1766 22.0211C25.5555 20.5661 24.9612 19.0996 24.3529 17.639C23.9767 16.736 23.5963 15.8347 23.2047 14.9015C22.3031 14.9015 21.3564 14.826 20.4266 14.919C19.0096 15.0609 17.6901 15.5633 16.57 16.4576C16.0357 16.8842 15.5554 17.4049 15.1442 17.9532C14.4777 18.8418 14.66 20.0743 15.4043 20.8909C16.385 21.9669 17.6403 22.4207 19.0111 22.7182C20.218 22.9801 21.4171 23.2931 22.5985 23.6531C24.098 24.11 25.4194 24.9027 26.4584 26.0877C27.4895 27.2638 28.1464 28.6225 28.3393 30.2044C28.5829 32.2021 28.0385 33.9709 26.9036 35.5875C26.3052 36.4401 25.512 37.0903 24.6554 37.6681C24.57 37.7257 24.4837 37.7821 24.3005 37.9036C24.6352 37.8659 24.8691 37.8528 25.0976 37.8103C25.3379 37.7657 25.5729 37.6926 25.8104 37.6327C27.1872 37.2855 28.4993 36.7684 29.7638 36.1261C30.1327 35.9387 30.3283 35.9703 30.4721 36.232C30.6032 36.4706 30.4676 36.728 30.1363 36.9143C28.716 37.7131 27.2136 38.3151 25.6385 38.7167C24.9697 38.8872 24.2726 38.9571 23.5842 39.0365C23.0875 39.0937 22.5714 39.1719 22.0862 39.0968C21.2935 38.9741 20.5924 39.3573 19.839 39.3814C18.8401 39.4133 17.8394 39.4193 16.8401 39.4027C15.7854 39.3853 14.7793 39.1075 13.7907 38.7565C12.1735 38.1822 10.8044 37.255 9.75506 35.8902C9.24891 35.2319 8.95967 34.4489 8.97712 33.6332C9.00988 32.1013 10.1712 30.7576 11.8311 30.8821C12.4494 30.9284 12.9902 31.2063 13.4785 31.5949C14.4856 32.3965 15.0772 33.526 15.8206 34.5349C16.8206 35.8921 18.1075 36.8701 19.6682 37.4882C19.8012 37.5409 19.992 37.4917 20.143 37.4466C20.7452 37.2665 21.3424 37.0694 21.9698 36.8748ZM2.73866 29.6025C3.02341 29.8086 3.28596 30.0605 3.59748 30.2111C4.25704 30.5301 5.21149 30.4279 5.63604 29.739C6.19927 28.8251 6.75316 27.8989 7.22218 26.9347C8.5308 24.2446 9.79807 21.5342 11.0709 18.8268C11.3353 18.2642 11.5533 17.6797 11.7926 17.1053C11.0125 17.471 10.2787 17.8608 9.57859 18.3038C8.50822 18.9813 7.49545 19.7341 6.65797 20.7025C6.25475 21.1687 5.77559 21.5723 5.39627 22.0556C4.13615 23.6611 3.22132 25.4519 2.63101 27.4079C2.41096 28.137 2.24112 28.8601 2.73866 29.6025ZM21.0997 9.60319C20.8356 8.94357 20.571 8.28413 20.3075 7.6243C20.038 6.94958 19.7694 6.27448 19.5009 5.60081C18.4661 8.2989 17.4409 10.9722 16.4382 13.587C18.4715 13.4645 20.5031 13.3422 22.5371 13.2197C22.0679 12.0548 21.5856 10.8577 21.0997 9.60319ZM16.1051 37.5943C16.5029 37.6221 16.9006 37.6499 17.393 37.6843C16.2989 36.9994 15.4534 36.2136 14.7447 35.2821C14.088 34.4188 13.5103 33.4939 12.6924 32.7598C12.2597 32.3715 11.6168 32.2069 11.2054 32.4244C10.3995 32.8504 10.3773 33.7428 10.7527 34.4955C11.2338 35.46 12.0873 36.0677 13.0002 36.5803C13.946 37.1114 14.976 37.4062 16.1051 37.5943ZM41.1608 38.3258C41.4593 38.204 41.7614 38.0902 42.0552 37.9583C42.3873 37.8091 42.3557 37.5557 42.2049 37.2974C41.9974 36.9419 41.6313 36.8219 41.2658 36.7343C40.6547 36.5878 40.036 36.5366 39.409 36.6557C38.6113 36.8071 37.8107 36.944 37.0114 37.0872C37.0165 37.1261 37.0215 37.165 37.0266 37.2039C38.2569 38.0509 39.5704 38.6094 41.1608 38.3258Z" fill="#85CCFF"/>
</svg>
