<svg width="40" height="40" viewBox="0 0 40 40" fill="none" xmlns="http://www.w3.org/2000/svg">
<mask id="mask0_34_2147" style="mask-type:alpha" maskUnits="userSpaceOnUse" x="0" y="0" width="40" height="40">
<rect width="40" height="40" fill="#D9D9D9"/>
</mask>
<g mask="url(#mask0_34_2147)">
<path d="M35.5001 31.1668L30.5001 26.1668L32.8334 23.8335L37.8334 28.8335L35.5001 31.1668ZM29.5001 11.1668L27.1667 8.8335L32.1667 3.8335L34.5001 6.16683L29.5001 11.1668ZM10.5001 11.1668L5.50008 6.16683L7.83341 3.8335L12.8334 8.8335L10.5001 11.1668ZM4.50008 31.1668L2.16675 28.8335L7.16675 23.8335L9.50008 26.1668L4.50008 31.1668ZM14.7501 28.0418L20.0001 24.8752L25.2501 28.0835L23.8751 22.0835L28.5001 18.0835L22.4167 17.5418L20.0001 11.8752L17.5834 17.5002L11.5001 18.0418L16.1251 22.0835L14.7501 28.0418ZM9.70841 35.0002L12.4167 23.2918L3.33341 15.4168L15.3334 14.3752L20.0001 3.3335L24.6667 14.3752L36.6667 15.4168L27.5834 23.2918L30.2917 35.0002L20.0001 28.7918L9.70841 35.0002Z" fill="url(#paint0_linear_34_2147)"/>
</g>
<defs>
<linearGradient id="paint0_linear_34_2147" x1="37.8334" y1="19.1668" x2="2.16675" y2="19.1668" gradientUnits="userSpaceOnUse">
<stop stop-color="#85CCFF"/>
<stop offset="1" stop-color="#00B0F0"/>
</linearGradient>
</defs>
</svg>
